<svg xmlns="http://www.w3.org/2000/svg" viewBox="0 0 627.4 548.96"><defs><style>.cls-1{fill:#fff;}.cls-2{fill:none;stroke:#fff;stroke-linecap:round;stroke-miterlimit:10;stroke-width:22px;}</style></defs><g id="Layer_2" data-name="Layer 2"><g id="Layer_8" data-name="Layer 8"><path class="cls-1" d="M169.94,111.26H124.65a13.6,13.6,0,0,1-13.59-13.59V52.38a13.58,13.58,0,0,1,23.19-9.6l45.3,45.29a13.58,13.58,0,0,1-9.61,23.19Z"/><circle class="cls-2" cx="137.13" cy="210.48" r="63.06"/><path class="cls-2" d="M193.88,298.77H80.37A69.42,69.42,0,0,0,11,368.14v12.61a18.93,18.93,0,0,0,18.92,18.92H244.33a18.93,18.93,0,0,0,18.92-18.92V368.14A69.42,69.42,0,0,0,193.88,298.77Z"/><circle class="cls-2" cx="490.28" cy="210.48" r="63.06"/><path class="cls-2" d="M547,298.77H433.52a69.43,69.43,0,0,0-69.37,69.37v12.61a18.93,18.93,0,0,0,18.92,18.92H597.49a18.92,18.92,0,0,0,18.91-18.92V368.14A69.42,69.42,0,0,0,547,298.77Z"/><path class="cls-2" d="M137.13,78.91S218,11,313.7,11,497.05,85.32,497.05,85.32"/><path class="cls-1" d="M438.17,437.7h45.29a13.59,13.59,0,0,1,13.59,13.59v45.29a13.58,13.58,0,0,1-23.19,9.61l-45.29-45.3a13.58,13.58,0,0,1,9.6-23.19Z"/><path class="cls-2" d="M471,470.05S390.14,538,294.41,538s-183.35-74.31-183.35-74.31"/></g></g></svg>