<svg xmlns="http://www.w3.org/2000/svg" viewBox="0 0 626.43 583.48"><defs><style>.cls-1{fill:none;stroke:#fff;stroke-linecap:round;stroke-linejoin:round;stroke-width:22px;}</style></defs><g id="Layer_2" data-name="Layer 2"><g id="Layer_4" data-name="Layer 4"><line class="cls-1" x1="95.38" y1="416.58" x2="95.38" y2="572.48"/><line class="cls-1" x1="533.17" y1="416.58" x2="533.17" y2="572.48"/><line class="cls-1" x1="240.06" y1="86.07" x2="387.91" y2="86.07"/><line class="cls-1" x1="240.06" y1="11" x2="387.91" y2="11"/><path class="cls-1" d="M235.17,572.48V365.66c0-5.85-2.88-14.86-7.1-19.08"/><path class="cls-1" d="M11,572.48V387.81a77.47,77.47,0,0,1,77.47-77.47h0"/><circle class="cls-1" cx="133.85" cy="220.98" r="97.8"/><path class="cls-1" d="M129.18,249.9a30.13,30.13,0,0,0,31.74,17.22"/><path class="cls-1" d="M392.74,572.48V387.81c0-42.79,27.24-74.66,70-74.66"/><circle class="cls-1" cx="495.54" cy="220.98" r="97.8"/><path class="cls-1" d="M499,251a30.14,30.14,0,0,1-31.75,17.23"/><path class="cls-1" d="M615.43,572.48V372.28s-3.45-22.44-12.65-33.94"/></g></g></svg>