<svg xmlns="http://www.w3.org/2000/svg" viewBox="0 0 624.34 566.13"><defs><style>.cls-1{fill:none;stroke:#fff;stroke-linecap:round;stroke-miterlimit:10;stroke-width:22px;}</style></defs><g id="Layer_2" data-name="Layer 2"><g id="Layer_6" data-name="Layer 6"><path class="cls-1" d="M420.22,316.86l82.35,82.35a39.59,39.59,0,0,1,0,56h0a39.59,39.59,0,0,1-56,0l-79.82-79.83"/><path class="cls-1" d="M367.45,374.67l69.91,69.91a39.59,39.59,0,0,1,0,56h0a39.58,39.58,0,0,1-56,0l-28-28"/><path class="cls-1" d="M377.23,496.84a34.14,34.14,0,0,1,0,48.28h0a34.14,34.14,0,0,1-48.29,0l-13-13"/><rect class="cls-1" x="100.61" y="273.57" width="68.29" height="131.57" rx="34.14" transform="translate(279.43 4.11) rotate(45)"/><path class="cls-1" d="M525.34,311.23l44-44.05a150.08,150.08,0,0,0,0-212.23h0a150.08,150.08,0,0,0-212.23,0l-74.45,71.21-58.92,58.92a14.11,14.11,0,0,0,0,19.94l.63.63a53.31,53.31,0,0,0,75.38,0l56.79-56.79"/><rect class="cls-1" x="147.99" y="324.7" width="68.29" height="149.71" rx="34.14" transform="translate(335.87 -11.76) rotate(45)"/><rect class="cls-1" x="202.98" y="377.79" width="68.29" height="140.53" rx="34.14" transform="translate(386.28 -36.44) rotate(45)"/><rect class="cls-1" x="266.18" y="437.56" width="68.29" height="123.95" rx="34.14" transform="translate(441.18 -66.05) rotate(45)"/><path class="cls-1" d="M356.59,148.86l62.49,62.49,66.18,59.81L548,333.92a39.58,39.58,0,0,1,0,56h0a39.59,39.59,0,0,1-56,0l-72.43-72.43"/><path class="cls-1" d="M104.55,321.27,55,271.68A150.08,150.08,0,0,1,55,59.45h0a150.06,150.06,0,0,1,212.23,0l41.69,41.69"/></g></g></svg>