<svg xmlns="http://www.w3.org/2000/svg" viewBox="0 0 636.39 636.39"><defs><style>.cls-1{fill:none;stroke:#fff;stroke-linecap:round;stroke-linejoin:round;stroke-width:22px;}</style></defs><g id="Layer_2" data-name="Layer 2"><g id="Layer_4" data-name="Layer 4"><path class="cls-1" d="M137.78,252c0-25.7-30.86-38.8-49.34-20.95L19.89,297.25a29.12,29.12,0,0,0,0,41.89l68.55,66.19c18.48,17.85,49.34,4.75,49.34-20.95V345.87a27.67,27.67,0,0,1,27.68-27.67H180.4A137.8,137.8,0,0,1,318.2,456V165.46a27.68,27.68,0,0,0-27.68-27.68H252c-25.7,0-38.8-30.86-20.95-49.34l66.19-68.55a29.12,29.12,0,0,1,41.89,0l66.19,68.55c17.85,18.48,4.75,49.34-20.95,49.34"/><path class="cls-1" d="M318.2,625.39V450.51A132.3,132.3,0,0,1,450.51,318.2h20.42a27.68,27.68,0,0,0,27.68-27.68V252c0-25.7,30.86-38.8,49.34-20.95l68.55,66.19a29.12,29.12,0,0,1,0,41.89L548,405.33c-18.48,17.85-49.34,4.75-49.34-20.95"/></g></g></svg>