<svg xmlns="http://www.w3.org/2000/svg" viewBox="0 0 634.85 558.95"><defs><style>.cls-1{fill:#fff;}</style></defs><g id="Layer_2" data-name="Layer 2"><g id="Layer_3" data-name="Layer 3"><path class="cls-1" d="M362.64,556.93a10.27,10.27,0,0,1-10.26-10.26V379.75a10.13,10.13,0,0,1,.44-2.95l15.56-51.74a10.24,10.24,0,0,1,12.78-6.86A10.24,10.24,0,0,1,388,331L372.9,381.26V546.67A10.27,10.27,0,0,1,362.64,556.93Z"/><path class="cls-1" d="M378.2,318.76a9.2,9.2,0,0,1,2.67.4h0a9.25,9.25,0,0,1,6.19,11.53L371.9,381.11V546.67a9.26,9.26,0,0,1-18.52,0V379.75a9.34,9.34,0,0,1,.4-2.67l15.56-51.73a9.26,9.26,0,0,1,8.86-6.59m0-2a11.33,11.33,0,0,0-10.78,8l-15.56,51.73a11.1,11.1,0,0,0-.48,3.24V546.67a11.26,11.26,0,0,0,22.52,0V381.41L389,331.26a11.27,11.27,0,0,0-10.78-14.5Z"/><path class="cls-1" d="M389.57,300.51a10.28,10.28,0,0,1-9.83-13.22L390.07,253a184.17,184.17,0,0,0,5.72-25.43,10.33,10.33,0,0,1,10.13-8.73,10,10,0,0,1,1.54.12,10.27,10.27,0,0,1,8.61,11.68,205.32,205.32,0,0,1-6.35,28.27L399.39,293.2A10.33,10.33,0,0,1,389.57,300.51Z"/><path class="cls-1" d="M405.92,219.8a9.38,9.38,0,0,1,1.39.1,9.26,9.26,0,0,1,7.77,10.54,204.76,204.76,0,0,1-6.32,28.13l-10.33,34.35a9.26,9.26,0,0,1-17.73-5.34L391,253.24a184.74,184.74,0,0,0,5.75-25.57,9.25,9.25,0,0,1,9.14-7.87m0-2a11.32,11.32,0,0,0-11.12,9.57,185.05,185.05,0,0,1-5.68,25.29L378.79,287a11.25,11.25,0,1,0,21.55,6.48l10.33-34.34a205.92,205.92,0,0,0,6.39-28.41,11.26,11.26,0,0,0-9.45-12.82,12,12,0,0,0-1.69-.12Z"/><path class="cls-1" d="M193.63,558a10.27,10.27,0,0,1-10.26-10.26V480.31a13.07,13.07,0,0,0-13-13.05L89.76,467a38.68,38.68,0,0,1-38-32.16L39.5,363.57H17.9A16.92,16.92,0,0,1,1,346.67a146.35,146.35,0,0,1,22.07-77.33l9.84-15.83a1.73,1.73,0,0,0,.26-1.06l-3.69-47.79A189.1,189.1,0,0,1,218,1c2.38,0,4.85,0,7.34.13A10.26,10.26,0,0,1,225,21.64h-.38c-2.25-.08-4.47-.12-6.61-.12A168.58,168.58,0,0,0,49.93,203.08l3.69,47.79a22.11,22.11,0,0,1-3.29,13.47l-9.84,15.83a126,126,0,0,0-18.93,62.89H48.14a10.23,10.23,0,0,1,10.11,8.51L72,431.31a18.18,18.18,0,0,0,17.87,15.13l80.62.31a33.61,33.61,0,0,1,33.42,33.56v67.38A10.27,10.27,0,0,1,193.63,558Z"/><path class="cls-1" d="M218,2c2.37,0,4.83,0,7.3.13A9.26,9.26,0,0,1,225,20.64h-.34c-2.26-.08-4.5-.12-6.65-.12A169.58,169.58,0,0,0,48.93,203.16l3.69,47.78a21.11,21.11,0,0,1-3.14,12.87l-9.84,15.83a126.76,126.76,0,0,0-19.1,64.42h27.6a9.24,9.24,0,0,1,9.12,7.68L71,431.48a19.19,19.19,0,0,0,18.86,16l80.61.31a32.61,32.61,0,0,1,32.43,32.56v67.38a9.26,9.26,0,1,1-18.51,0V480.31a14.07,14.07,0,0,0-14-14.05L89.77,466a37.67,37.67,0,0,1-37-31.33l-12.4-72.05H17.9A15.91,15.91,0,0,1,2,346.67a145.36,145.36,0,0,1,21.92-76.8L33.76,254a2.8,2.8,0,0,0,.41-1.67l-3.69-47.78A188.09,188.09,0,0,1,218,2m0-2A190.1,190.1,0,0,0,28.48,204.74l3.69,47.79a.69.69,0,0,1-.11.46l-9.84,15.82A147.33,147.33,0,0,0,0,346.67a17.92,17.92,0,0,0,17.9,17.9H38.66L50.77,435a39.66,39.66,0,0,0,39,33l80.62.31a12.07,12.07,0,0,1,12,12.05v67.38a11.26,11.26,0,1,0,22.51,0V480.31a34.62,34.62,0,0,0-34.42-34.56l-80.62-.31A17.2,17.2,0,0,1,73,431.14L59.23,351.41a11.22,11.22,0,0,0-11.09-9.35H22.6a125.1,125.1,0,0,1,18.74-61.37l9.84-15.82a23.19,23.19,0,0,0,3.44-14.08L50.92,203A167.59,167.59,0,0,1,218,22.51c2.13,0,4.34,0,6.58.12H225a11.26,11.26,0,0,0,8.22-18.93A11.2,11.2,0,0,0,225.38.13C222.88,0,220.4,0,218,0Z"/><path class="cls-1" d="M441.22,558A10.27,10.27,0,0,1,431,547.69V480.31a33.62,33.62,0,0,1,33.42-33.56l80.62-.31a18.19,18.19,0,0,0,17.87-15.13l13.72-79.74a10.23,10.23,0,0,1,10.11-8.51h26.58a126,126,0,0,0-18.93-62.89l-9.84-15.83a22.11,22.11,0,0,1-3.29-13.47l3.69-47.79A168.58,168.58,0,0,0,416.84,21.51a178.22,178.22,0,0,0-80,18.6,203.12,203.12,0,0,1,56.1,63.68,10.25,10.25,0,1,1-17.9,10,182,182,0,0,0-57.73-62.38A180.43,180.43,0,0,0,272.64,94a178.1,178.1,0,0,0-27.87,159l7.9,26.25a10.25,10.25,0,0,1-9.83,13.21,10.31,10.31,0,0,1-9.81-7.3l-7.9-26.25A198.42,198.42,0,0,1,256.18,81.75a202.22,202.22,0,0,1,41.55-41.64,175.76,175.76,0,0,0-33.4-12.61A10.28,10.28,0,0,1,257,15a10.27,10.27,0,0,1,9.91-7.64,10.16,10.16,0,0,1,2.63.35A196.49,196.49,0,0,1,317.23,27.3,200.17,200.17,0,0,1,416.84,1,189.1,189.1,0,0,1,605.37,204.66l-3.69,47.79a1.73,1.73,0,0,0,.26,1.06l9.84,15.83a146.35,146.35,0,0,1,22.07,77.33,16.92,16.92,0,0,1-16.9,16.9h-21.6L583.1,434.79a38.68,38.68,0,0,1-38,32.16l-80.62.31a13.07,13.07,0,0,0-13,13.05v67.38A10.27,10.27,0,0,1,441.22,558Z"/><path class="cls-1" d="M416.84,2A188.09,188.09,0,0,1,604.37,204.59l-3.69,47.78a2.8,2.8,0,0,0,.41,1.67l9.84,15.83h0a145.36,145.36,0,0,1,21.92,76.8,15.91,15.91,0,0,1-15.9,15.9H594.51l-12.4,72.05a37.67,37.67,0,0,1-37,31.33l-80.62.31a14.07,14.07,0,0,0-14,14v67.39a9.26,9.26,0,1,1-18.51,0V480.3a32.61,32.61,0,0,1,32.42-32.55l80.62-.31a19.2,19.2,0,0,0,18.86-16l13.72-79.74a9.24,9.24,0,0,1,9.12-7.68h27.6a126.76,126.76,0,0,0-19.1-64.42l-9.84-15.83a21.11,21.11,0,0,1-3.14-12.87l3.69-47.78A169.58,169.58,0,0,0,416.84,20.51,180.28,180.28,0,0,0,334.91,40,200.93,200.93,0,0,1,392,104.28a9.26,9.26,0,0,1-16.16,9,182.52,182.52,0,0,0-58.61-63.09,181.57,181.57,0,0,0-45.43,43.17,179,179,0,0,0-28,159.85l7.89,26.25A9.25,9.25,0,1,1,234,284.82l-7.9-26.25A197.41,197.41,0,0,1,257,82.35,201,201,0,0,1,299.64,40a176.88,176.88,0,0,0-35.05-13.42,9.26,9.26,0,1,1,4.72-17.9,195.77,195.77,0,0,1,47.92,19.83A198.16,198.16,0,0,1,416.84,2m0-2a201.24,201.24,0,0,0-99.61,26.15A198,198,0,0,0,269.83,6.7a11.23,11.23,0,0,0-13.76,8,11.25,11.25,0,0,0,8,13.75,174.48,174.48,0,0,1,31.76,11.83,203,203,0,0,0-40.45,40.87,199.35,199.35,0,0,0-31.2,178l7.89,26.25a11.32,11.32,0,0,0,10.77,8,11.27,11.27,0,0,0,10.79-14.5l-7.9-26.25A177.08,177.08,0,0,1,273.44,94.59a179.45,179.45,0,0,1,43.84-42,181.1,181.1,0,0,1,56.86,61.65,11.25,11.25,0,0,0,19.65-11,204.14,204.14,0,0,0-55.07-63,177.18,177.18,0,0,1,78.12-17.78A167.59,167.59,0,0,1,583.93,203l-3.7,47.78a23.19,23.19,0,0,0,3.44,14.08l9.84,15.82a125.11,125.11,0,0,1,18.75,61.37H586.71a11.22,11.22,0,0,0-11.09,9.34L561.9,431.14a17.2,17.2,0,0,1-16.9,14.3l-80.61.31A34.63,34.63,0,0,0,430,480.3v67.39a11.26,11.26,0,1,0,22.51,0V480.3a12.07,12.07,0,0,1,12-12l80.61-.31a39.66,39.66,0,0,0,39-33l12.11-70.39H617a17.92,17.92,0,0,0,17.9-17.9,147.36,147.36,0,0,0-22.22-77.86L602.79,253a.68.68,0,0,1-.11-.46l3.69-47.78A190.1,190.1,0,0,0,416.84,0Z"/><path class="cls-1" d="M272.21,556.93A10.27,10.27,0,0,1,262,546.67V402.41a10.26,10.26,0,0,1,20.51,0V546.67A10.27,10.27,0,0,1,272.21,556.93Z"/><path class="cls-1" d="M272.21,393.16a9.26,9.26,0,0,1,9.26,9.25V546.67a9.26,9.26,0,1,1-18.51,0V402.41a9.25,9.25,0,0,1,9.25-9.25m0-2A11.26,11.26,0,0,0,261,402.41V546.67a11.26,11.26,0,1,0,22.51,0V402.41a11.27,11.27,0,0,0-11.26-11.25Z"/><path class="cls-1" d="M463.19,233.25a16.43,16.43,0,0,1-7-1.56,16.21,16.21,0,0,1-9.43-14.82V202.28H370.69a16.54,16.54,0,0,1-16.53-16.52V152.09a16.54,16.54,0,0,1,16.53-16.53H446.8V121a16.33,16.33,0,0,1,26.85-12.53l57.22,47.95a16.34,16.34,0,0,1,0,25.06l-57.22,48A16.33,16.33,0,0,1,463.19,233.25Zm-6.14-51.48A10.27,10.27,0,0,1,467.31,192V201a3.3,3.3,0,0,0,3.28,3.28,3.18,3.18,0,0,0,2.08-.78l38.23-32a3.26,3.26,0,0,0,0-5l-38.23-32a3.22,3.22,0,0,0-2.08-.77,3.29,3.29,0,0,0-3.28,3.27v8.94a10.27,10.27,0,0,1-10.26,10.25H374.66v25.7Z"/><path class="cls-1" d="M463.19,105.6a15.26,15.26,0,0,1,9.82,3.61l57.22,48a15.35,15.35,0,0,1,0,23.53L473,228.64a15.26,15.26,0,0,1-9.82,3.61,15.42,15.42,0,0,1-6.53-1.47h0a15.2,15.2,0,0,1-8.86-13.91V201.28H370.68a15.53,15.53,0,0,1-15.52-15.52V152.09a15.54,15.54,0,0,1,15.52-15.53H447.8V121a15.2,15.2,0,0,1,8.86-13.91,15.44,15.44,0,0,1,6.53-1.46m-89.52,77.17h83.38a9.26,9.26,0,0,1,9.26,9.26V201a4.26,4.26,0,0,0,4.28,4.28,4.22,4.22,0,0,0,2.72-1l38.24-32a4.26,4.26,0,0,0,0-6.53l-38.24-32a4.21,4.21,0,0,0-2.72-1,4.26,4.26,0,0,0-4.28,4.27v8.94a9.25,9.25,0,0,1-9.26,9.25H373.67v27.7m89.52-79.17A17.41,17.41,0,0,0,445.8,121v13.59H370.68a17.54,17.54,0,0,0-17.52,17.53v33.67a17.54,17.54,0,0,0,17.52,17.52H445.8v13.59a17.32,17.32,0,0,0,28.49,13.3l57.22-47.95a17.35,17.35,0,0,0,0-26.6l-57.22-47.94a17.32,17.32,0,0,0-11.1-4.08Zm-87.52,53.47h81.38a11.27,11.27,0,0,0,11.26-11.25v-8.94a2.25,2.25,0,0,1,2.28-2.27,2.14,2.14,0,0,1,1.43.54l38.24,32a2.26,2.26,0,0,1,0,3.47L472,202.7a2.19,2.19,0,0,1-1.43.54,2.26,2.26,0,0,1-2.28-2.28V192a11.27,11.27,0,0,0-11.26-11.26H375.67v-23.7Z"/><path class="cls-1" d="M203.21,406.6a16.32,16.32,0,0,1-10.46-3.84l-57.22-47.95a16.27,16.27,0,0,1-5.67-14.93,16.8,16.8,0,0,1,6-10.39l56.91-47.69a16.35,16.35,0,0,1,26.85,12.53v14.59h76.12a16.55,16.55,0,0,1,16.52,16.53v33.66a16.54,16.54,0,0,1-16.52,16.53H219.6v14.17a16.8,16.8,0,0,1-9.14,15.1A16.44,16.44,0,0,1,203.21,406.6Zm-6.37-100.81a2.23,2.23,0,0,0-1.42.53l-39.18,32.84a4.06,4.06,0,0,0,0,6.24l39.18,32.84a2.16,2.16,0,0,0,1.42.53,2.23,2.23,0,0,0,2.25-2.24V365.39a10.27,10.27,0,0,1,10.25-10.26h82.39v-25.7H209.34a10.26,10.26,0,0,1-10.25-10.25V308A2.23,2.23,0,0,0,196.84,305.79Z"/><path class="cls-1" d="M203.21,279a15.44,15.44,0,0,1,6.53,1.46,15.2,15.2,0,0,1,8.86,13.91v15.59h77.12a15.55,15.55,0,0,1,15.53,15.53v33.66a15.53,15.53,0,0,1-15.53,15.53H218.6v15.17A15.73,15.73,0,0,1,210,404a15.47,15.47,0,0,1-6.81,1.59,15.23,15.23,0,0,1-9.82-3.6l-57.22-47.95a15.33,15.33,0,0,1-5.32-14,15.82,15.82,0,0,1,5.63-9.76l56.91-47.69a15.24,15.24,0,0,1,9.82-3.61m-6.37,100.81a3.23,3.23,0,0,0,3.25-3.24V365.39a9.26,9.26,0,0,1,9.25-9.26h83.39v-27.7H209.34a9.25,9.25,0,0,1-9.25-9.25V308a3.24,3.24,0,0,0-3.25-3.24,3.17,3.17,0,0,0-2.06.77l-39.19,32.83a5.08,5.08,0,0,0,0,7.78L194.78,379a3.21,3.21,0,0,0,2.06.76M203.21,277a17.32,17.32,0,0,0-11.1,4.08l-56.92,47.69a17.79,17.79,0,0,0-6.32,11,17.27,17.27,0,0,0,6,15.85l57.22,47.95a17.23,17.23,0,0,0,18.79,2.27,17.78,17.78,0,0,0,9.7-16V376.64h75.12a17.55,17.55,0,0,0,17.53-17.53V325.45a17.55,17.55,0,0,0-17.53-17.53H220.6V294.33a17.2,17.2,0,0,0-10-15.72,17.42,17.42,0,0,0-7.38-1.65Zm-6.37,100.81a1.24,1.24,0,0,1-.78-.29l-39.18-32.84a3.08,3.08,0,0,1-1.1-2.36,3,3,0,0,1,1.1-2.35l39.18-32.84a1.19,1.19,0,0,1,.78-.3,1.24,1.24,0,0,1,1.25,1.24v11.15a11.27,11.27,0,0,0,11.25,11.25h81.39v23.7H209.34a11.27,11.27,0,0,0-11.25,11.26v11.14a1.23,1.23,0,0,1-1.25,1.24Z"/></g></g></svg>