<svg xmlns="http://www.w3.org/2000/svg" viewBox="0 0 631.91 557.15"><defs><style>.cls-1{fill:none;stroke:#fff;stroke-linecap:round;stroke-linejoin:round;stroke-width:22px;}</style></defs><g id="Layer_2" data-name="Layer 2"><g id="Layer_5" data-name="Layer 5"><polyline class="cls-1" points="620.91 235.68 315.96 11 11 235.68"/><polygon class="cls-1" points="80.04 235.68 80.04 546.15 551.87 546.15 551.87 235.68 315.96 55.68 80.04 235.68"/><circle class="cls-1" cx="218.92" cy="285.77" r="40.21"/><circle class="cls-1" cx="408.47" cy="279.04" r="41.72"/><circle class="cls-1" cx="311.6" cy="330.25" r="26.13"/><path class="cls-1" d="M484.49,429v39H367.66V439.84a54.24,54.24,0,0,0-25-45.71A75.2,75.2,0,0,1,484.49,429Z"/><path class="cls-1" d="M367.66,439.84V468H259.13V439.84a54.27,54.27,0,1,1,108.53,0Z"/><path class="cls-1" d="M282.18,395.46a54.16,54.16,0,0,0-23.05,44.38V468H143.73V429.87a73.5,73.5,0,0,1,138.45-34.41Z"/></g></g></svg>