<svg xmlns="http://www.w3.org/2000/svg" viewBox="0 0 618.21 624.28"><defs><style>.cls-1{fill:none;stroke:#fff;stroke-linecap:round;stroke-linejoin:round;stroke-width:22px;}</style></defs><g id="Layer_2" data-name="Layer 2"><g id="Layer_4" data-name="Layer 4"><path class="cls-1" d="M497.31,483,461.07,590.24a33.89,33.89,0,1,1-64.21-21.7l31.9-94.41-40.64-41.69L339,382.05a46.1,46.1,0,0,1-4.35-59.26l66.55-92.07h-58l-81.13-43a33.89,33.89,0,0,1,31.76-59.88L360,162.94H447.7a44,44,0,0,1,35.67,69.8l-83.14,115,86.53,88.77A45.41,45.41,0,0,1,497.31,483Z"/><path class="cls-1" d="M388.12,432.44v27.78a44.32,44.32,0,0,1-19.77,36.95l-107,71.35a33.89,33.89,0,0,1-37.6-56.4l96.61-64.4V396.11a33.78,33.78,0,0,1,10.84-24.81A46.36,46.36,0,0,0,339,382.05Z"/><line class="cls-1" x1="11" y1="540.32" x2="418.11" y2="611.5"/><circle class="cls-1" cx="550.02" cy="177.98" r="57.2"/><circle class="cls-1" cx="429.57" cy="84.65" r="73.65"/><polyline class="cls-1" points="429.57 11 429.57 84.65 503.22 84.65"/></g></g></svg>