<svg xmlns="http://www.w3.org/2000/svg" viewBox="0 0 573.8 622.21"><defs><style>.cls-1,.cls-2,.cls-3,.cls-4{fill:none;stroke:#fff;stroke-width:22px;}.cls-1,.cls-2{stroke-linecap:round;}.cls-1,.cls-4{stroke-miterlimit:10;}.cls-2,.cls-3{stroke-linejoin:round;}</style></defs><g id="Layer_2" data-name="Layer 2"><g id="Layer_7" data-name="Layer 7"><rect class="cls-1" x="80.8" y="11" width="412.2" height="54.28" rx="15.34"/><path class="cls-2" d="M197.72,321.12H181.88A170.89,170.89,0,0,1,11,150.24V137.65a28.5,28.5,0,0,1,28.5-28.49h85.74v13.55a212.72,212.72,0,0,0,2,27.53H52.09A129.81,129.81,0,0,0,170.71,279.57,305.49,305.49,0,0,0,197.72,321.12Z"/><path class="cls-3" d="M479.79,245.77q2-1.83,3.91-3.75a129.41,129.41,0,0,0,38-91.78h-75.2a213.54,213.54,0,0,0,2.05-28.32V109.16H534.3a28.5,28.5,0,0,1,28.5,28.49v12.59A170.5,170.5,0,0,1,503.07,280"/><path class="cls-2" d="M203.52,494s45.7-53.63,37.8-132.22"/><path class="cls-2" d="M370.63,494s-45.71-53.63-37.8-132.22"/><rect class="cls-2" x="230.26" y="384.05" width="113.28" height="341.06" transform="translate(841.47 267.67) rotate(90)"/><rect class="cls-2" x="167.72" y="534.91" width="238.35" height="39.33"/><path class="cls-2" d="M422.45,398.56c-7.69,0-14.37-6.91-21.46-8.81-7.33-2-16.56.61-23-3.11s-8.87-13.1-14.15-18.39-14.61-7.63-18.39-14.15-1.14-15.65-3.11-23c-1.9-7.09-8.81-13.77-8.81-21.46s6.91-14.36,8.81-21.45c2-7.33-.61-16.56,3.11-23s13.1-8.86,18.39-14.15,7.63-14.61,14.15-18.38,15.65-1.14,23-3.11c7.09-1.9,13.77-8.81,21.46-8.81s14.36,6.91,21.45,8.81c7.33,2,16.56-.61,23,3.11s8.86,13.1,14.14,18.39,14.62,7.63,18.39,14.15,1.14,15.65,3.11,23c1.9,7.09,8.81,13.77,8.81,21.45s-6.91,14.37-8.81,21.46c-2,7.33.61,16.56-3.11,23S486.32,363,481,368.25s-7.63,14.61-14.15,18.39-15.65,1.14-23,3.11C436.81,391.65,430.13,398.56,422.45,398.56Z"/><circle class="cls-2" cx="422.44" cy="309.66" r="43.79"/><path class="cls-3" d="M462.32,385.73v68.94l-39.88-15.2-35.64,15.2V387.81"/><path class="cls-4" d="M347.15,351c-18.73,15.59-39.2,25-60.64,25-32.81,0-63.33-22.28-88.79-54.89a305.49,305.49,0,0,1-27-41.55c-22.63-41.45-38.26-89.44-43.52-129.33a212.72,212.72,0,0,1-2-27.53V65.28H448.56v56.64a213.54,213.54,0,0,1-2.05,28.32c-3.08,22.88-9.53,48.35-18.74,73.7"/></g></g></svg>