<svg width="1280" height="720" xmlns="http://www.w3.org/2000/svg" xmlns:xlink="http://www.w3.org/1999/xlink" overflow="hidden"><defs><filter id="fx0" x="-10%" y="-10%" width="120%" height="120%" filterUnits="userSpaceOnUse" primitiveUnits="userSpaceOnUse"><feComponentTransfer color-interpolation-filters="sRGB"><feFuncR type="discrete" tableValues="0 0"/><feFuncG type="discrete" tableValues="0 0"/><feFuncB type="discrete" tableValues="0 0"/><feFuncA type="linear" slope="0.45098" intercept="0"/></feComponentTransfer><feGaussianBlur stdDeviation="4.4456 4.44444"/></filter><filter id="fx1" x="-10%" y="-10%" width="120%" height="120%" filterUnits="userSpaceOnUse" primitiveUnits="userSpaceOnUse"><feComponentTransfer color-interpolation-filters="sRGB"><feFuncR type="discrete" tableValues="0 0"/><feFuncG type="discrete" tableValues="0 0"/><feFuncB type="discrete" tableValues="0 0"/><feFuncA type="linear" slope="0.45098" intercept="0"/></feComponentTransfer><feGaussianBlur stdDeviation="4.4456 4.44444"/></filter><filter id="fx2" x="-10%" y="-10%" width="120%" height="120%" filterUnits="userSpaceOnUse" primitiveUnits="userSpaceOnUse"><feComponentTransfer color-interpolation-filters="sRGB"><feFuncR type="discrete" tableValues="0 0"/><feFuncG type="discrete" tableValues="0 0"/><feFuncB type="discrete" tableValues="0 0"/><feFuncA type="linear" slope="0.45098" intercept="0"/></feComponentTransfer><feGaussianBlur stdDeviation="4.4456 4.44444"/></filter><filter id="fx3" x="-10%" y="-10%" width="120%" height="120%" filterUnits="userSpaceOnUse" primitiveUnits="userSpaceOnUse"><feComponentTransfer color-interpolation-filters="sRGB"><feFuncR type="discrete" tableValues="0 0"/><feFuncG type="discrete" tableValues="0 0"/><feFuncB type="discrete" tableValues="0 0"/><feFuncA type="linear" slope="0.45098" intercept="0"/></feComponentTransfer><feGaussianBlur stdDeviation="4.4456 4.44444"/></filter><filter id="fx4" x="-10%" y="-10%" width="120%" height="120%" filterUnits="userSpaceOnUse" primitiveUnits="userSpaceOnUse"><feComponentTransfer color-interpolation-filters="sRGB"><feFuncR type="discrete" tableValues="0 0"/><feFuncG type="discrete" tableValues="0 0"/><feFuncB type="discrete" tableValues="0 0"/><feFuncA type="linear" slope="0.45098" intercept="0"/></feComponentTransfer><feGaussianBlur stdDeviation="4.4456 4.44444"/></filter><filter id="fx5" x="-10%" y="-10%" width="120%" height="120%" filterUnits="userSpaceOnUse" primitiveUnits="userSpaceOnUse"><feComponentTransfer color-interpolation-filters="sRGB"><feFuncR type="discrete" tableValues="0 0"/><feFuncG type="discrete" tableValues="0 0"/><feFuncB type="discrete" tableValues="0 0"/><feFuncA type="linear" slope="0.45098" intercept="0"/></feComponentTransfer><feGaussianBlur stdDeviation="4.4456 4.44444"/></filter><filter id="fx6" x="-10%" y="-10%" width="120%" height="120%" filterUnits="userSpaceOnUse" primitiveUnits="userSpaceOnUse"><feComponentTransfer color-interpolation-filters="sRGB"><feFuncR type="discrete" tableValues="0 0"/><feFuncG type="discrete" tableValues="0 0"/><feFuncB type="discrete" tableValues="0 0"/><feFuncA type="linear" slope="0.45098" intercept="0"/></feComponentTransfer><feGaussianBlur stdDeviation="4.4456 4.44444"/></filter><filter id="fx7" x="-10%" y="-10%" width="120%" height="120%" filterUnits="userSpaceOnUse" primitiveUnits="userSpaceOnUse"><feComponentTransfer color-interpolation-filters="sRGB"><feFuncR type="discrete" tableValues="0 0"/><feFuncG type="discrete" tableValues="0 0"/><feFuncB type="discrete" tableValues="0 0"/><feFuncA type="linear" slope="0.45098" intercept="0"/></feComponentTransfer><feGaussianBlur stdDeviation="4.4456 4.44444"/></filter><filter id="fx8" x="-10%" y="-10%" width="120%" height="120%" filterUnits="userSpaceOnUse" primitiveUnits="userSpaceOnUse"><feComponentTransfer color-interpolation-filters="sRGB"><feFuncR type="discrete" tableValues="0 0"/><feFuncG type="discrete" tableValues="0 0"/><feFuncB type="discrete" tableValues="0 0"/><feFuncA type="linear" slope="0.45098" intercept="0"/></feComponentTransfer><feGaussianBlur stdDeviation="4.4456 4.44444"/></filter><filter id="fx9" x="-10%" y="-10%" width="120%" height="120%" filterUnits="userSpaceOnUse" primitiveUnits="userSpaceOnUse"><feComponentTransfer color-interpolation-filters="sRGB"><feFuncR type="discrete" tableValues="0 0"/><feFuncG type="discrete" tableValues="0 0"/><feFuncB type="discrete" tableValues="0 0"/><feFuncA type="linear" slope="0.45098" intercept="0"/></feComponentTransfer><feGaussianBlur stdDeviation="4.4456 4.44444"/></filter><filter id="fx10" x="-10%" y="-10%" width="120%" height="120%" filterUnits="userSpaceOnUse" primitiveUnits="userSpaceOnUse"><feComponentTransfer color-interpolation-filters="sRGB"><feFuncR type="discrete" tableValues="0 0"/><feFuncG type="discrete" tableValues="0 0"/><feFuncB type="discrete" tableValues="0 0"/><feFuncA type="linear" slope="0.45098" intercept="0"/></feComponentTransfer><feGaussianBlur stdDeviation="4.4456 4.44444"/></filter><filter id="fx11" x="-10%" y="-10%" width="120%" height="120%" filterUnits="userSpaceOnUse" primitiveUnits="userSpaceOnUse"><feComponentTransfer color-interpolation-filters="sRGB"><feFuncR type="discrete" tableValues="0 0"/><feFuncG type="discrete" tableValues="0 0"/><feFuncB type="discrete" tableValues="0 0"/><feFuncA type="linear" slope="0.45098" intercept="0"/></feComponentTransfer><feGaussianBlur stdDeviation="4.4456 4.44444"/></filter><clipPath id="clip12"><rect x="0" y="0" width="1280" height="720"/></clipPath><linearGradient x1="640" y1="0" x2="640" y2="719.812" gradientUnits="userSpaceOnUse" spreadMethod="reflect" id="fill13"><stop offset="0" stop-color="#F6F9FC"/><stop offset="0.74" stop-color="#DBEEF4"/><stop offset="1" stop-color="#F2F2F2"/></linearGradient><linearGradient x1="636.996" y1="186.951" x2="636.996" y2="390.898" gradientUnits="userSpaceOnUse" spreadMethod="reflect" id="fill14"><stop offset="0" stop-color="#A07400"/><stop offset="0.5" stop-color="#E6A900"/><stop offset="1" stop-color="#FFCA00"/></linearGradient><linearGradient x1="732.005" y1="262.781" x2="732.005" y2="391.898" gradientUnits="userSpaceOnUse" spreadMethod="reflect" id="fill15"><stop offset="0" stop-color="#675B75"/><stop offset="0.5" stop-color="#9585A9"/><stop offset="1" stop-color="#B39FCA"/></linearGradient><linearGradient x1="796.072" y1="365.282" x2="669.344" y2="541.12" gradientUnits="userSpaceOnUse" spreadMethod="reflect" id="fill16"><stop offset="0" stop-color="#44571B"/><stop offset="0.5" stop-color="#64802B"/><stop offset="1" stop-color="#799936"/></linearGradient><linearGradient x1="483.95" y1="370.954" x2="609.957" y2="545.598" gradientUnits="userSpaceOnUse" spreadMethod="reflect" id="fill17"><stop offset="0" stop-color="#127D7D"/><stop offset="0.5" stop-color="#1FB5B5"/><stop offset="1" stop-color="#28D7D7"/></linearGradient><linearGradient x1="480.989" y1="240.639" x2="608.573" y2="417.497" gradientUnits="userSpaceOnUse" spreadMethod="reflect" id="fill18"><stop offset="0" stop-color="#5F5F5F"/><stop offset="0.5" stop-color="#8B8B8B"/><stop offset="1" stop-color="#A6A6A6"/></linearGradient><clipPath id="clip19"><rect x="-2" y="-2" width="122" height="122"/></clipPath><clipPath id="clip20"><rect x="0" y="0" width="119" height="119"/></clipPath><clipPath id="clip21"><rect x="18" y="18" width="64" height="53"/></clipPath><clipPath id="clip22"><rect x="0" y="0" width="100" height="96"/></clipPath><linearGradient x1="594" y1="196.949" x2="683" y2="285.926" gradientUnits="userSpaceOnUse" spreadMethod="reflect" id="fill23"><stop offset="0" stop-color="#FFFFFF"/><stop offset="0.027027" stop-color="#FEFEFE"/><stop offset="0.0540541" stop-color="#FEFEFE"/><stop offset="0.0810811" stop-color="#FEFEFE"/><stop offset="0.108108" stop-color="#FEFEFE"/><stop offset="0.135135" stop-color="#FEFEFE"/><stop offset="0.162162" stop-color="#FDFDFD"/><stop offset="0.189189" stop-color="#FDFDFD"/><stop offset="0.216216" stop-color="#FCFCFC"/><stop offset="0.243243" stop-color="#FCFCFC"/><stop offset="0.27027" stop-color="#FBFBFB"/><stop offset="0.297297" stop-color="#FBFBFB"/><stop offset="0.324324" stop-color="#FAFAFA"/><stop offset="0.351351" stop-color="#F9F9F9"/><stop offset="0.378378" stop-color="#F8F8F8"/><stop offset="0.405405" stop-color="#F8F8F8"/><stop offset="0.432432" stop-color="#F7F7F7"/><stop offset="0.459459" stop-color="#F6F6F6"/><stop offset="0.486486" stop-color="#F5F5F5"/><stop offset="0.513514" stop-color="#F4F4F4"/><stop offset="0.540541" stop-color="#F3F3F3"/><stop offset="0.567568" stop-color="#F1F1F1"/><stop offset="0.594595" stop-color="#F0F0F0"/><stop offset="0.621622" stop-color="#EFEFEF"/><stop offset="0.648649" stop-color="#EEEEEE"/><stop offset="0.675676" stop-color="#ECECEC"/><stop offset="0.702703" stop-color="#EBEBEB"/><stop offset="0.72973" stop-color="#E9E9E9"/><stop offset="0.756757" stop-color="#E8E8E8"/><stop offset="0.783784" stop-color="#E6E6E6"/><stop offset="0.810811" stop-color="#E5E5E5"/><stop offset="0.837838" stop-color="#E3E3E3"/><stop offset="0.864865" stop-color="#E2E2E2"/><stop offset="0.891892" stop-color="#E0E0E0"/><stop offset="0.918919" stop-color="#DEDEDE"/><stop offset="0.945946" stop-color="#DCDCDC"/><stop offset="0.972973" stop-color="#DADADA"/><stop offset="1" stop-color="#D9D9D9"/></linearGradient><clipPath id="clip24"><rect x="-2" y="-2" width="122" height="122"/></clipPath><clipPath id="clip25"><rect x="0" y="0" width="118" height="119"/></clipPath><clipPath id="clip26"><rect x="18" y="18" width="64" height="53"/></clipPath><clipPath id="clip27"><rect x="0" y="0" width="100" height="96"/></clipPath><linearGradient x1="723.503" y1="274.431" x2="812.497" y2="362.403" gradientUnits="userSpaceOnUse" spreadMethod="reflect" id="fill28"><stop offset="0" stop-color="#FFFFFF"/><stop offset="0.027027" stop-color="#FEFEFE"/><stop offset="0.0540541" stop-color="#FEFEFE"/><stop offset="0.0810811" stop-color="#FEFEFE"/><stop offset="0.108108" stop-color="#FEFEFE"/><stop offset="0.135135" stop-color="#FEFEFE"/><stop offset="0.162162" stop-color="#FDFDFD"/><stop offset="0.189189" stop-color="#FDFDFD"/><stop offset="0.216216" stop-color="#FCFCFC"/><stop offset="0.243243" stop-color="#FCFCFC"/><stop offset="0.27027" stop-color="#FBFBFB"/><stop offset="0.297297" stop-color="#FBFBFB"/><stop offset="0.324324" stop-color="#FAFAFA"/><stop offset="0.351351" stop-color="#F9F9F9"/><stop offset="0.378378" stop-color="#F8F8F8"/><stop offset="0.405405" stop-color="#F8F8F8"/><stop offset="0.432432" stop-color="#F7F7F7"/><stop offset="0.459459" stop-color="#F6F6F6"/><stop offset="0.486486" stop-color="#F5F5F5"/><stop offset="0.513514" stop-color="#F4F4F4"/><stop offset="0.540541" stop-color="#F3F3F3"/><stop offset="0.567568" stop-color="#F1F1F1"/><stop offset="0.594595" stop-color="#F0F0F0"/><stop offset="0.621622" stop-color="#EFEFEF"/><stop offset="0.648649" stop-color="#EEEEEE"/><stop offset="0.675676" stop-color="#ECECEC"/><stop offset="0.702703" stop-color="#EBEBEB"/><stop offset="0.72973" stop-color="#E9E9E9"/><stop offset="0.756757" stop-color="#E8E8E8"/><stop offset="0.783784" stop-color="#E6E6E6"/><stop offset="0.810811" stop-color="#E5E5E5"/><stop offset="0.837838" stop-color="#E3E3E3"/><stop offset="0.864865" stop-color="#E2E2E2"/><stop offset="0.891892" stop-color="#E0E0E0"/><stop offset="0.918919" stop-color="#DEDEDE"/><stop offset="0.945946" stop-color="#DCDCDC"/><stop offset="0.972973" stop-color="#DADADA"/><stop offset="1" stop-color="#D9D9D9"/></linearGradient><clipPath id="clip29"><rect x="-2" y="-2" width="122" height="122"/></clipPath><clipPath id="clip30"><rect x="0" y="0" width="118" height="118"/></clipPath><clipPath id="clip31"><rect x="18" y="18" width="61" height="53"/></clipPath><clipPath id="clip32"><rect x="0" y="0" width="100" height="96"/></clipPath><linearGradient x1="726" y1="419.891" x2="814" y2="507.868" gradientUnits="userSpaceOnUse" spreadMethod="reflect" id="fill33"><stop offset="0" stop-color="#FFFFFF"/><stop offset="0.027027" stop-color="#FEFEFE"/><stop offset="0.0540541" stop-color="#FEFEFE"/><stop offset="0.0810811" stop-color="#FEFEFE"/><stop offset="0.108108" stop-color="#FEFEFE"/><stop offset="0.135135" stop-color="#FEFEFE"/><stop offset="0.162162" stop-color="#FDFDFD"/><stop offset="0.189189" stop-color="#FDFDFD"/><stop offset="0.216216" stop-color="#FCFCFC"/><stop offset="0.243243" stop-color="#FCFCFC"/><stop offset="0.27027" stop-color="#FBFBFB"/><stop offset="0.297297" stop-color="#FBFBFB"/><stop offset="0.324324" stop-color="#FAFAFA"/><stop offset="0.351351" stop-color="#F9F9F9"/><stop offset="0.378378" stop-color="#F8F8F8"/><stop offset="0.405405" stop-color="#F8F8F8"/><stop offset="0.432432" stop-color="#F7F7F7"/><stop offset="0.459459" stop-color="#F6F6F6"/><stop offset="0.486486" stop-color="#F5F5F5"/><stop offset="0.513514" stop-color="#F4F4F4"/><stop offset="0.540541" stop-color="#F3F3F3"/><stop offset="0.567568" stop-color="#F1F1F1"/><stop offset="0.594595" stop-color="#F0F0F0"/><stop offset="0.621622" stop-color="#EFEFEF"/><stop offset="0.648649" stop-color="#EEEEEE"/><stop offset="0.675676" stop-color="#ECECEC"/><stop offset="0.702703" stop-color="#EBEBEB"/><stop offset="0.72973" stop-color="#E9E9E9"/><stop offset="0.756757" stop-color="#E8E8E8"/><stop offset="0.783784" stop-color="#E6E6E6"/><stop offset="0.810811" stop-color="#E5E5E5"/><stop offset="0.837838" stop-color="#E3E3E3"/><stop offset="0.864865" stop-color="#E2E2E2"/><stop offset="0.891892" stop-color="#E0E0E0"/><stop offset="0.918919" stop-color="#DEDEDE"/><stop offset="0.945946" stop-color="#DCDCDC"/><stop offset="0.972973" stop-color="#DADADA"/><stop offset="1" stop-color="#D9D9D9"/></linearGradient><clipPath id="clip34"><rect x="-2" y="-2" width="122" height="122"/></clipPath><clipPath id="clip35"><rect x="0" y="0" width="119" height="119"/></clipPath><clipPath id="clip36"><rect x="18" y="18" width="64" height="53"/></clipPath><clipPath id="clip37"><rect x="0" y="0" width="100" height="97"/></clipPath><linearGradient x1="599" y1="497.87" x2="688" y2="586.847" gradientUnits="userSpaceOnUse" spreadMethod="reflect" id="fill38"><stop offset="0" stop-color="#FFFFFF"/><stop offset="0.027027" stop-color="#FEFEFE"/><stop offset="0.0540541" stop-color="#FEFEFE"/><stop offset="0.0810811" stop-color="#FEFEFE"/><stop offset="0.108108" stop-color="#FEFEFE"/><stop offset="0.135135" stop-color="#FEFEFE"/><stop offset="0.162162" stop-color="#FDFDFD"/><stop offset="0.189189" stop-color="#FDFDFD"/><stop offset="0.216216" stop-color="#FCFCFC"/><stop offset="0.243243" stop-color="#FCFCFC"/><stop offset="0.27027" stop-color="#FBFBFB"/><stop offset="0.297297" stop-color="#FBFBFB"/><stop offset="0.324324" stop-color="#FAFAFA"/><stop offset="0.351351" stop-color="#F9F9F9"/><stop offset="0.378378" stop-color="#F8F8F8"/><stop offset="0.405405" stop-color="#F8F8F8"/><stop offset="0.432432" stop-color="#F7F7F7"/><stop offset="0.459459" stop-color="#F6F6F6"/><stop offset="0.486486" stop-color="#F5F5F5"/><stop offset="0.513514" stop-color="#F4F4F4"/><stop offset="0.540541" stop-color="#F3F3F3"/><stop offset="0.567568" stop-color="#F1F1F1"/><stop offset="0.594595" stop-color="#F0F0F0"/><stop offset="0.621622" stop-color="#EFEFEF"/><stop offset="0.648649" stop-color="#EEEEEE"/><stop offset="0.675676" stop-color="#ECECEC"/><stop offset="0.702703" stop-color="#EBEBEB"/><stop offset="0.72973" stop-color="#E9E9E9"/><stop offset="0.756757" stop-color="#E8E8E8"/><stop offset="0.783784" stop-color="#E6E6E6"/><stop offset="0.810811" stop-color="#E5E5E5"/><stop offset="0.837838" stop-color="#E3E3E3"/><stop offset="0.864865" stop-color="#E2E2E2"/><stop offset="0.891892" stop-color="#E0E0E0"/><stop offset="0.918919" stop-color="#DEDEDE"/><stop offset="0.945946" stop-color="#DCDCDC"/><stop offset="0.972973" stop-color="#DADADA"/><stop offset="1" stop-color="#D9D9D9"/></linearGradient><clipPath id="clip39"><rect x="-2" y="-2" width="122" height="122"/></clipPath><clipPath id="clip40"><rect x="0" y="0" width="119" height="118"/></clipPath><clipPath id="clip41"><rect x="18" y="18" width="64" height="53"/></clipPath><clipPath id="clip42"><rect x="0" y="0" width="101" height="97"/></clipPath><linearGradient x1="466.503" y1="424.392" x2="554.497" y2="513.363" gradientUnits="userSpaceOnUse" spreadMethod="reflect" id="fill43"><stop offset="0" stop-color="#FFFFFF"/><stop offset="0.027027" stop-color="#FEFEFE"/><stop offset="0.0540541" stop-color="#FEFEFE"/><stop offset="0.0810811" stop-color="#FEFEFE"/><stop offset="0.108108" stop-color="#FEFEFE"/><stop offset="0.135135" stop-color="#FEFEFE"/><stop offset="0.162162" stop-color="#FDFDFD"/><stop offset="0.189189" stop-color="#FDFDFD"/><stop offset="0.216216" stop-color="#FCFCFC"/><stop offset="0.243243" stop-color="#FCFCFC"/><stop offset="0.27027" stop-color="#FBFBFB"/><stop offset="0.297297" stop-color="#FBFBFB"/><stop offset="0.324324" stop-color="#FAFAFA"/><stop offset="0.351351" stop-color="#F9F9F9"/><stop offset="0.378378" stop-color="#F8F8F8"/><stop offset="0.405405" stop-color="#F8F8F8"/><stop offset="0.432432" stop-color="#F7F7F7"/><stop offset="0.459459" stop-color="#F6F6F6"/><stop offset="0.486486" stop-color="#F5F5F5"/><stop offset="0.513514" stop-color="#F4F4F4"/><stop offset="0.540541" stop-color="#F3F3F3"/><stop offset="0.567568" stop-color="#F1F1F1"/><stop offset="0.594595" stop-color="#F0F0F0"/><stop offset="0.621622" stop-color="#EFEFEF"/><stop offset="0.648649" stop-color="#EEEEEE"/><stop offset="0.675676" stop-color="#ECECEC"/><stop offset="0.702703" stop-color="#EBEBEB"/><stop offset="0.72973" stop-color="#E9E9E9"/><stop offset="0.756757" stop-color="#E8E8E8"/><stop offset="0.783784" stop-color="#E6E6E6"/><stop offset="0.810811" stop-color="#E5E5E5"/><stop offset="0.837838" stop-color="#E3E3E3"/><stop offset="0.864865" stop-color="#E2E2E2"/><stop offset="0.891892" stop-color="#E0E0E0"/><stop offset="0.918919" stop-color="#DEDEDE"/><stop offset="0.945946" stop-color="#DCDCDC"/><stop offset="0.972973" stop-color="#DADADA"/><stop offset="1" stop-color="#D9D9D9"/></linearGradient><clipPath id="clip44"><rect x="-2" y="-2" width="122" height="122"/></clipPath><clipPath id="clip45"><rect x="0" y="0" width="118" height="118"/></clipPath><clipPath id="clip46"><rect x="18" y="18" width="64" height="53"/></clipPath><clipPath id="clip47"><rect x="0" y="0" width="100" height="97"/></clipPath><linearGradient x1="463" y1="273.929" x2="551" y2="361.906" gradientUnits="userSpaceOnUse" spreadMethod="reflect" id="fill48"><stop offset="0" stop-color="#FFFFFF"/><stop offset="0.027027" stop-color="#FEFEFE"/><stop offset="0.0540541" stop-color="#FEFEFE"/><stop offset="0.0810811" stop-color="#FEFEFE"/><stop offset="0.108108" stop-color="#FEFEFE"/><stop offset="0.135135" stop-color="#FEFEFE"/><stop offset="0.162162" stop-color="#FDFDFD"/><stop offset="0.189189" stop-color="#FDFDFD"/><stop offset="0.216216" stop-color="#FCFCFC"/><stop offset="0.243243" stop-color="#FCFCFC"/><stop offset="0.27027" stop-color="#FBFBFB"/><stop offset="0.297297" stop-color="#FBFBFB"/><stop offset="0.324324" stop-color="#FAFAFA"/><stop offset="0.351351" stop-color="#F9F9F9"/><stop offset="0.378378" stop-color="#F8F8F8"/><stop offset="0.405405" stop-color="#F8F8F8"/><stop offset="0.432432" stop-color="#F7F7F7"/><stop offset="0.459459" stop-color="#F6F6F6"/><stop offset="0.486486" stop-color="#F5F5F5"/><stop offset="0.513514" stop-color="#F4F4F4"/><stop offset="0.540541" stop-color="#F3F3F3"/><stop offset="0.567568" stop-color="#F1F1F1"/><stop offset="0.594595" stop-color="#F0F0F0"/><stop offset="0.621622" stop-color="#EFEFEF"/><stop offset="0.648649" stop-color="#EEEEEE"/><stop offset="0.675676" stop-color="#ECECEC"/><stop offset="0.702703" stop-color="#EBEBEB"/><stop offset="0.72973" stop-color="#E9E9E9"/><stop offset="0.756757" stop-color="#E8E8E8"/><stop offset="0.783784" stop-color="#E6E6E6"/><stop offset="0.810811" stop-color="#E5E5E5"/><stop offset="0.837838" stop-color="#E3E3E3"/><stop offset="0.864865" stop-color="#E2E2E2"/><stop offset="0.891892" stop-color="#E0E0E0"/><stop offset="0.918919" stop-color="#DEDEDE"/><stop offset="0.945946" stop-color="#DCDCDC"/><stop offset="0.972973" stop-color="#DADADA"/><stop offset="1" stop-color="#D9D9D9"/></linearGradient></defs><g clip-path="url(#clip12)"><rect x="0" y="0" width="1280" height="719.812" fill="url(#fill13)"/><text font-family="Arial Black,Arial Black_MSFontService,sans-serif" font-weight="900" font-size="43" transform="matrix(1 0 0 0.99974 76.8011 79)">program development life cycle</text><path d="M626.096 296.788C626.096 296.788 626.096 296.788 626.096 296.788 630.004 297.641 634.157 298.129 638.309 298.129 669.086 298.129 694 273.26 694 242.54 694 211.82 669.086 186.951 638.309 186.951 614.372 186.951 593.976 201.946 586.16 223.157 578.466 240.711 577 265.58 587.381 298.129 608.876 365.054 638.309 390.898 638.309 390.898 616.692 359.569 611.318 327.63 610.586 320.559 609.242 308.734 607.044 294.228 626.096 296.788Z" fill="url(#fill14)" fill-rule="evenodd"/><path d="M715.421 334.575C715.421 334.575 715.421 334.575 715.421 334.697 716.526 338.477 718.246 342.258 720.335 345.917 735.57 372.628 769.849 381.897 796.756 366.773 823.54 351.528 833 317.622 817.642 290.911 805.725 270.177 782.381 259.932 760.02 263.469 740.73 265.543 718.124 276.641 694.902 301.644 646.986 353.479 639 391.898 639 391.898 655.709 357.504 681.019 337.136 686.794 332.989 696.5 326.037 708.049 316.89 715.421 334.575Z" fill="url(#fill15)" fill-rule="evenodd"/><path d="M728.341 427.256C728.341 427.256 728.219 427.256 728.219 427.256 725.531 430.301 723.209 433.589 721.132 437.243 705.981 464.039 715.633 497.9 742.392 512.881 769.273 527.862 803.241 518.362 818.27 491.688 830 470.86 826.823 445.769 812.161 428.596 800.553 413.249 779.537 399.729 746.058 392.908 677.023 378.901 640 391.934 640 391.934 678 388.402 708.547 399.364 715.145 402.165 726.019 406.793 739.704 411.909 728.341 427.256Z" fill="url(#fill16)" fill-rule="evenodd"/><path d="M653.973 486.943C653.973 486.943 653.85 486.943 653.85 486.943 649.917 486.211 645.737 485.844 641.558 485.844 610.583 486.455 586 511.86 586.615 542.638 587.106 573.295 612.673 597.844 643.648 597.234 667.74 596.745 688.021 581.356 695.519 559.982 702.894 542.15 704 517.234 692.815 484.867 669.952 418.18 639.837 392.898 639.837 392.898 662.208 423.921 668.231 455.798 669.092 462.882 670.567 474.608 673.148 489.142 653.973 486.943Z" fill="#FF5050" fill-rule="evenodd"/><path d="M564.067 451.199C564.067 451.199 564.067 451.199 564.067 451.199 562.839 447.409 561.119 443.618 558.908 440.072 542.939 413.662 508.543 405.225 482.01 421.121 455.476 437.016 447 471.251 462.969 497.662 475.376 518.203 499.084 527.862 521.319 523.705 540.605 521.138 562.839 509.522 585.441 483.723 631.998 430.658 639 391.898 639 391.898 623.154 426.745 598.34 447.898 592.689 452.177 583.23 459.391 571.929 468.806 564.067 451.199Z" fill="url(#fill17)" fill-rule="evenodd"/><path d="M549.269 355.09C549.269 355.09 549.269 355.09 549.269 355.09 551.976 352.032 554.437 348.73 556.53 345.06 571.79 318.273 562.314 284.269 535.362 269.101 508.287 253.934 474.075 263.352 458.814 290.14 447 310.934 450.077 336.131 464.722 353.5 476.413 368.912 497.457 382.489 531.178 389.461 600.711 403.895 638 390.929 638 390.929 599.726 394.354 568.959 383.223 562.437 380.41 551.484 375.639 537.577 370.502 549.269 355.09Z" fill="url(#fill18)" fill-rule="evenodd"/><g clip-path="url(#clip19)" filter="url(#fx0)" transform="translate(582 185)"><g clip-path="url(#clip20)"><path d="M14.8292 59.2655C14.8292 34.6952 34.7525 14.7771 59.3292 14.7771 83.9059 14.7771 103.829 34.6952 103.829 59.2655 103.829 83.8358 83.9059 103.754 59.3292 103.754 34.7525 103.754 14.8292 83.8358 14.8292 59.2655Z" fill="#FF0000" fill-rule="evenodd"/></g></g><g clip-path="url(#clip21)" filter="url(#fx1)" transform="translate(591 201)"><g clip-path="url(#clip22)"><path d="M15.1094-10.1562C15.1094-8.60417 14.987-7.1875 14.7422-5.90625 14.4974-4.625 14.0911-3.52344 13.5234-2.60156 12.9557-1.67969 12.2135-0.966146 11.2969-0.460938 10.3802 0.0442708 9.25 0.296875 7.90625 0.296875 6.63542 0.296875 5.5651 0.0703125 4.69531-0.382812 3.82552-0.835938 3.125-1.5026 2.59375-2.38281 2.0625-3.26302 1.6849-4.34635 1.46094-5.63281 1.23698-6.91927 1.125-8.39583 1.125-10.0625 1.125-11.6042 1.25-13.0182 1.5-14.3047 1.75-15.5911 2.15625-16.6953 2.71875-17.6172 3.28125-18.5391 4.02083-19.2526 4.9375-19.7578 5.85417-20.263 6.97917-20.5156 8.3125-20.5156 9.59375-20.5156 10.6693-20.2891 11.5391-19.8359 12.4089-19.3828 13.1094-18.7161 13.6406-17.8359 14.1719-16.9557 14.5495-15.8724 14.7734-14.5859 14.9974-13.2995 15.1094-11.8229 15.1094-10.1562ZM12.3594-9.96875C12.3594-10.9792 12.3229-11.8854 12.25-12.6875 12.1771-13.4896 12.0703-14.1979 11.9297-14.8125 11.7891-15.4271 11.6068-15.9557 11.3828-16.3984 11.1589-16.8411 10.8906-17.2057 10.5781-17.4922 10.2656-17.7786 9.90885-17.987 9.50781-18.1172 9.10677-18.2474 8.65625-18.3125 8.15625-18.3125 7.27083-18.3125 6.55208-18.1042 6-17.6875 5.44792-17.2708 5.01302-16.6979 4.69531-15.9688 4.3776-15.2396 4.16146-14.3854 4.04688-13.4062 3.93229-12.4271 3.875-11.375 3.875-10.25 3.875-8.73958 3.95312-7.45573 4.10938-6.39844 4.26562-5.34115 4.51302-4.47917 4.85156-3.8125 5.1901-3.14583 5.6224-2.66146 6.14844-2.35938 6.67448-2.05729 7.3125-1.90625 8.0625-1.90625 8.64583-1.90625 9.15885-2 9.60156-2.1875 10.0443-2.375 10.4245-2.64323 10.7422-2.99219 11.0599-3.34115 11.3229-3.76042 11.5312-4.25 11.7396-4.73958 11.9062-5.28125 12.0312-5.875 12.1562-6.46875 12.2422-7.11198 12.2891-7.80469 12.3359-8.4974 12.3594-9.21875 12.3594-9.96875ZM30.6553-1.0625C30.6553-0.864583 30.6396-0.697917 30.6084-0.5625 30.5771-0.427083 30.5355-0.317708 30.4834-0.234375 30.4313-0.151042 30.3714-0.0911458 30.3037-0.0546875 30.236-0.0182292 30.1657 0 30.0928 0L19.5303 0C19.4573 0 19.3896-0.0182292 19.3271-0.0546875 19.2646-0.0911458 19.2047-0.151042 19.1474-0.234375 19.0901-0.317708 19.0459-0.427083 19.0146-0.5625 18.9834-0.697917 18.9678-0.864583 18.9678-1.0625 18.9678-1.25 18.9834-1.41146 19.0146-1.54688 19.0459-1.68229 19.0849-1.79427 19.1318-1.88281 19.1787-1.97135 19.236-2.03906 19.3037-2.08594 19.3714-2.13281 19.4469-2.15625 19.5303-2.15625L23.749-2.15625 23.749-17.5312 19.8428-15.2031C19.6448-15.099 19.486-15.0365 19.3662-15.0156 19.2464-14.9948 19.15-15.0182 19.0771-15.0859 19.0042-15.1536 18.9547-15.2656 18.9287-15.4219 18.9026-15.5781 18.8896-15.776 18.8896-16.0156 18.8896-16.1927 18.8974-16.3438 18.9131-16.4688 18.9287-16.5938 18.9521-16.6979 18.9834-16.7812 19.0146-16.8646 19.0589-16.9375 19.1162-17 19.1735-17.0625 19.249-17.125 19.3428-17.1875L23.999-20.1719C24.0407-20.2031 24.0928-20.2292 24.1553-20.25 24.2178-20.2708 24.2959-20.2917 24.3896-20.3125 24.4834-20.3333 24.5928-20.3464 24.7178-20.3516 24.8428-20.3568 24.999-20.3594 25.1865-20.3594 25.4365-20.3594 25.6448-20.349 25.8115-20.3281 25.9782-20.3073 26.1084-20.2786 26.2021-20.2422 26.2959-20.2057 26.3584-20.1589 26.3896-20.1016 26.4209-20.0443 26.4365-19.9844 26.4365-19.9219L26.4365-2.15625 30.0928-2.15625C30.1761-2.15625 30.2542-2.13281 30.3271-2.08594 30.4-2.03906 30.4599-1.97135 30.5068-1.88281 30.5537-1.79427 30.5901-1.68229 30.6162-1.54688 30.6422-1.41146 30.6553-1.25 30.6553-1.0625Z" fill="#A6A6A6" transform="matrix(1 0 0 0.99974 33.9413 54)"/></g></g><path d="M594 241.437C594 216.867 613.923 196.949 638.5 196.949 663.077 196.949 683 216.867 683 241.437 683 266.007 663.077 285.926 638.5 285.926 613.923 285.926 594 266.007 594 241.437Z" fill="url(#fill23)" fill-rule="evenodd"/><text fill="#A6A6A6" font-family="Calibri,Calibri_MSFontService,sans-serif" font-weight="400" font-size="32" transform="matrix(1 0 0 0.99974 622.112 252)">01</text><g clip-path="url(#clip24)" filter="url(#fx2)" transform="translate(712 262)"><g clip-path="url(#clip25)"><path d="M14.8292 59.2455C14.8292 34.6752 34.5286 14.757 58.8292 14.757 83.1297 14.757 102.829 34.6752 102.829 59.2455 102.829 83.8158 83.1297 103.734 58.8292 103.734 34.5286 103.734 14.8292 83.8158 14.8292 59.2455Z" fill="#FF0000" fill-rule="evenodd"/></g></g><g clip-path="url(#clip26)" filter="url(#fx3)" transform="translate(721 278)"><g clip-path="url(#clip27)"><path d="M15.1094-10.1562C15.1094-8.60417 14.987-7.1875 14.7422-5.90625 14.4974-4.625 14.0911-3.52344 13.5234-2.60156 12.9557-1.67969 12.2135-0.966146 11.2969-0.460938 10.3802 0.0442708 9.25 0.296875 7.90625 0.296875 6.63542 0.296875 5.5651 0.0703125 4.69531-0.382812 3.82552-0.835938 3.125-1.5026 2.59375-2.38281 2.0625-3.26302 1.6849-4.34635 1.46094-5.63281 1.23698-6.91927 1.125-8.39583 1.125-10.0625 1.125-11.6042 1.25-13.0182 1.5-14.3047 1.75-15.5911 2.15625-16.6953 2.71875-17.6172 3.28125-18.5391 4.02083-19.2526 4.9375-19.7578 5.85417-20.263 6.97917-20.5156 8.3125-20.5156 9.59375-20.5156 10.6693-20.2891 11.5391-19.8359 12.4089-19.3828 13.1094-18.7161 13.6406-17.8359 14.1719-16.9557 14.5495-15.8724 14.7734-14.5859 14.9974-13.2995 15.1094-11.8229 15.1094-10.1562ZM12.3594-9.96875C12.3594-10.9792 12.3229-11.8854 12.25-12.6875 12.1771-13.4896 12.0703-14.1979 11.9297-14.8125 11.7891-15.4271 11.6068-15.9557 11.3828-16.3984 11.1589-16.8411 10.8906-17.2057 10.5781-17.4922 10.2656-17.7786 9.90885-17.987 9.50781-18.1172 9.10677-18.2474 8.65625-18.3125 8.15625-18.3125 7.27083-18.3125 6.55208-18.1042 6-17.6875 5.44792-17.2708 5.01302-16.6979 4.69531-15.9688 4.3776-15.2396 4.16146-14.3854 4.04688-13.4062 3.93229-12.4271 3.875-11.375 3.875-10.25 3.875-8.73958 3.95312-7.45573 4.10938-6.39844 4.26562-5.34115 4.51302-4.47917 4.85156-3.8125 5.1901-3.14583 5.6224-2.66146 6.14844-2.35938 6.67448-2.05729 7.3125-1.90625 8.0625-1.90625 8.64583-1.90625 9.15885-2 9.60156-2.1875 10.0443-2.375 10.4245-2.64323 10.7422-2.99219 11.0599-3.34115 11.3229-3.76042 11.5312-4.25 11.7396-4.73958 11.9062-5.28125 12.0312-5.875 12.1562-6.46875 12.2422-7.11198 12.2891-7.80469 12.3359-8.4974 12.3594-9.21875 12.3594-9.96875ZM30.6084-1.15625C30.6084-0.96875 30.5954-0.802083 30.5693-0.65625 30.5433-0.510417 30.5068-0.388021 30.4599-0.289062 30.4131-0.190104 30.3506-0.117187 30.2724-0.0703125 30.1943-0.0234375 30.1084 0 30.0146 0L18.8428 0C18.6969 0 18.5693-0.0182292 18.4599-0.0546875 18.3506-0.0911458 18.2568-0.151042 18.1787-0.234375 18.1006-0.317708 18.0433-0.4375 18.0068-0.59375 17.9704-0.75 17.9521-0.942708 17.9521-1.17188 17.9521-1.38021 17.9602-1.5625 17.9763-1.71875 17.9924-1.875 18.0273-2.01302 18.0809-2.13281 18.1345-2.2526 18.2016-2.3724 18.2822-2.49219 18.3628-2.61198 18.4674-2.73958 18.5962-2.875L22.6374-7.03125C23.5713-7.98958 24.3201-8.84896 24.8836-9.60938 25.4472-10.3698 25.8819-11.0625 26.1878-11.6875 26.4938-12.3125 26.695-12.8802 26.7916-13.3906 26.8882-13.901 26.9365-14.3802 26.9365-14.8281 26.9365-15.276 26.8613-15.7005 26.7108-16.1016 26.5603-16.5026 26.3427-16.8542 26.0578-17.1562 25.773-17.4583 25.4156-17.6979 24.9857-17.875 24.5558-18.0521 24.0613-18.1406 23.5024-18.1406 22.8468-18.1406 22.2584-18.0521 21.737-17.875 21.2157-17.6979 20.7589-17.5052 20.3666-17.2969 19.9742-17.0885 19.6464-16.8958 19.3832-16.7188 19.1199-16.5417 18.9237-16.4531 18.7947-16.4531 18.7195-16.4531 18.6523-16.474 18.5931-16.5156 18.534-16.5573 18.4856-16.625 18.448-16.7188 18.4104-16.8125 18.3808-16.9375 18.3594-17.0938 18.3379-17.25 18.3271-17.4375 18.3271-17.6562 18.3271-17.8125 18.3323-17.9479 18.3428-18.0625 18.3532-18.1771 18.3714-18.276 18.3974-18.3594 18.4235-18.4427 18.4573-18.5208 18.499-18.5938 18.5407-18.6667 18.624-18.7578 18.749-18.8672 18.874-18.9766 19.0901-19.125 19.3974-19.3125 19.7047-19.5 20.0901-19.6849 20.5537-19.8672 21.0172-20.0495 21.5276-20.2031 22.0849-20.3281 22.6422-20.4531 23.2282-20.5156 23.8428-20.5156 24.8219-20.5156 25.6787-20.3776 26.4131-20.1016 27.1474-19.8255 27.7568-19.4479 28.2412-18.9688 28.7256-18.4896 29.0875-17.9323 29.3271-17.2969 29.5667-16.6615 29.6865-15.9844 29.6865-15.2656 29.6865-14.6198 29.6292-13.9766 29.5146-13.3359 29.4-12.6953 29.1579-12.0026 28.7881-11.2578 28.4183-10.513 27.8844-9.6849 27.1865-8.77344 26.4886-7.86198 25.5615-6.8125 24.4053-5.625L21.2021-2.28125 29.999-2.28125C30.0823-2.28125 30.1631-2.25781 30.2412-2.21094 30.3193-2.16406 30.387-2.09375 30.4443-2 30.5016-1.90625 30.5433-1.78906 30.5693-1.64844 30.5954-1.50781 30.6084-1.34375 30.6084-1.15625Z" fill="#BFBFBF" transform="matrix(1 0 0 0.99974 33.887 54)"/></g></g><path d="M724 318.417C724 293.847 743.699 273.929 768 273.929 792.301 273.929 812 293.847 812 318.417 812 342.987 792.301 362.906 768 362.906 743.699 362.906 724 342.987 724 318.417Z" fill="url(#fill28)" fill-rule="evenodd"/><text fill="#BFBFBF" font-family="Calibri,Calibri_MSFontService,sans-serif" font-weight="400" font-size="32" transform="matrix(1 0 0 0.99974 752.058 329)">02</text><g clip-path="url(#clip29)" filter="url(#fx4)" transform="translate(714 408)"><g clip-path="url(#clip30)"><path d="M14.8292 58.7076C14.8292 34.4134 34.5286 14.719 58.8292 14.719 83.1297 14.719 102.829 34.4134 102.829 58.7076 102.829 83.0018 83.1297 102.696 58.8292 102.696 34.5286 102.696 14.8292 83.0018 14.8292 58.7076Z" fill="#FF0000" fill-rule="evenodd"/></g></g><g clip-path="url(#clip31)" filter="url(#fx5)" transform="translate(723 423)"><g clip-path="url(#clip32)"><path d="M15.1094-10.1562C15.1094-8.60417 14.987-7.1875 14.7422-5.90625 14.4974-4.625 14.0911-3.52344 13.5234-2.60156 12.9557-1.67969 12.2135-0.966146 11.2969-0.460938 10.3802 0.0442708 9.25 0.296875 7.90625 0.296875 6.63542 0.296875 5.5651 0.0703125 4.69531-0.382812 3.82552-0.835938 3.125-1.5026 2.59375-2.38281 2.0625-3.26302 1.6849-4.34635 1.46094-5.63281 1.23698-6.91927 1.125-8.39583 1.125-10.0625 1.125-11.6042 1.25-13.0182 1.5-14.3047 1.75-15.5911 2.15625-16.6953 2.71875-17.6172 3.28125-18.5391 4.02083-19.2526 4.9375-19.7578 5.85417-20.263 6.97917-20.5156 8.3125-20.5156 9.59375-20.5156 10.6693-20.2891 11.5391-19.8359 12.4089-19.3828 13.1094-18.7161 13.6406-17.8359 14.1719-16.9557 14.5495-15.8724 14.7734-14.5859 14.9974-13.2995 15.1094-11.8229 15.1094-10.1562ZM12.3594-9.96875C12.3594-10.9792 12.3229-11.8854 12.25-12.6875 12.1771-13.4896 12.0703-14.1979 11.9297-14.8125 11.7891-15.4271 11.6068-15.9557 11.3828-16.3984 11.1589-16.8411 10.8906-17.2057 10.5781-17.4922 10.2656-17.7786 9.90885-17.987 9.50781-18.1172 9.10677-18.2474 8.65625-18.3125 8.15625-18.3125 7.27083-18.3125 6.55208-18.1042 6-17.6875 5.44792-17.2708 5.01302-16.6979 4.69531-15.9688 4.3776-15.2396 4.16146-14.3854 4.04688-13.4062 3.93229-12.4271 3.875-11.375 3.875-10.25 3.875-8.73958 3.95312-7.45573 4.10938-6.39844 4.26562-5.34115 4.51302-4.47917 4.85156-3.8125 5.1901-3.14583 5.6224-2.66146 6.14844-2.35938 6.67448-2.05729 7.3125-1.90625 8.0625-1.90625 8.64583-1.90625 9.15885-2 9.60156-2.1875 10.0443-2.375 10.4245-2.64323 10.7422-2.99219 11.0599-3.34115 11.3229-3.76042 11.5312-4.25 11.7396-4.73958 11.9062-5.28125 12.0312-5.875 12.1562-6.46875 12.2422-7.11198 12.2891-7.80469 12.3359-8.4974 12.3594-9.21875 12.3594-9.96875ZM30.4521-5.78125C30.4521-4.85417 30.2907-4.01823 29.9678-3.27344 29.6448-2.52865 29.1813-1.89062 28.5771-1.35938 27.973-0.828125 27.2282-0.419271 26.3428-0.132812 25.4573 0.153646 24.4573 0.296875 23.3428 0.296875 22.6657 0.296875 22.0329 0.242188 21.4443 0.132812 20.8558 0.0234375 20.3323-0.106771 19.874-0.257812 19.4157-0.408854 19.0355-0.565104 18.7334-0.726562 18.4313-0.888021 18.2412-1.00521 18.1631-1.07812 18.0849-1.15104 18.025-1.22396 17.9834-1.29688 17.9417-1.36979 17.9053-1.45833 17.874-1.5625 17.8428-1.66667 17.8193-1.79427 17.8037-1.94531 17.7881-2.09635 17.7803-2.28125 17.7803-2.5 17.7803-2.875 17.8176-3.13542 17.8924-3.28125 17.9672-3.42708 18.0741-3.5 18.2131-3.5 18.3093-3.5 18.499-3.41667 18.7821-3.25 19.0652-3.08333 19.4285-2.90365 19.872-2.71094 20.3156-2.51823 20.8338-2.33854 21.4269-2.17188 22.0199-2.00521 22.6797-1.92187 23.4065-1.92188 24.1117-1.92187 24.7315-2.01042 25.2657-2.1875 25.8-2.36458 26.2488-2.61458 26.6122-2.9375 26.9755-3.26042 27.248-3.64323 27.4297-4.08594 27.6113-4.52865 27.7021-5.01042 27.7021-5.53125 27.7021-6.10417 27.5865-6.61979 27.3552-7.07812 27.1239-7.53646 26.7851-7.93229 26.3386-8.26562 25.8922-8.59896 25.3435-8.85417 24.6926-9.03125 24.0417-9.20833 23.3021-9.29688 22.4736-9.29688L20.4887-9.29688C20.4026-9.29688 20.3193-9.3151 20.2386-9.35156 20.158-9.38802 20.0881-9.44792 20.0289-9.53125 19.9697-9.61458 19.9213-9.72396 19.8836-9.85938 19.846-9.99479 19.8271-10.1719 19.8271-10.3906 19.8271-10.5885 19.8428-10.7526 19.874-10.8828 19.9053-11.013 19.9495-11.1172 20.0068-11.1953 20.0641-11.2734 20.1292-11.3307 20.2021-11.3672 20.275-11.4036 20.3584-11.4219 20.4521-11.4219L22.2178-11.4219C22.9053-11.4219 23.5224-11.5104 24.0693-11.6875 24.6162-11.8646 25.0797-12.1198 25.4599-12.4531 25.8401-12.7865 26.1318-13.1849 26.3349-13.6484 26.5381-14.112 26.6396-14.6302 26.6396-15.2031 26.6396-15.6198 26.5719-16.0182 26.4365-16.3984 26.3011-16.7786 26.098-17.1094 25.8271-17.3906 25.5563-17.6719 25.2099-17.8932 24.7881-18.0547 24.3662-18.2161 23.8792-18.2969 23.3271-18.2969 22.723-18.2969 22.1683-18.2057 21.6631-18.0234 21.1579-17.8411 20.7073-17.6458 20.3115-17.4375 19.9157-17.2292 19.5875-17.0339 19.3271-16.8516 19.0667-16.6693 18.8844-16.5781 18.7803-16.5781 18.7073-16.5781 18.6422-16.5911 18.5849-16.6172 18.5276-16.6432 18.4808-16.6953 18.4443-16.7734 18.4079-16.8516 18.3818-16.9609 18.3662-17.1016 18.3506-17.2422 18.3428-17.4271 18.3428-17.6562 18.3428-17.8125 18.348-17.9505 18.3584-18.0703 18.3688-18.1901 18.3896-18.2943 18.4209-18.3828 18.4521-18.4714 18.4886-18.5521 18.5303-18.625 18.5719-18.6979 18.6422-18.7839 18.7412-18.8828 18.8401-18.9818 19.0407-19.125 19.3428-19.3125 19.6448-19.5 20.0172-19.6849 20.4599-19.8672 20.9026-20.0495 21.4131-20.2031 21.9912-20.3281 22.5693-20.4531 23.1917-20.5156 23.8584-20.5156 24.7959-20.5156 25.6188-20.3958 26.3271-20.1562 27.0355-19.9167 27.6266-19.5781 28.1006-19.1406 28.5745-18.7031 28.9287-18.1797 29.1631-17.5703 29.3974-16.9609 29.5146-16.2865 29.5146-15.5469 29.5146-14.9115 29.4313-14.3203 29.2646-13.7734 29.098-13.2266 28.8532-12.7422 28.5303-12.3203 28.2073-11.8984 27.8115-11.5391 27.3428-11.2422 26.874-10.9453 26.3323-10.7396 25.7178-10.625L25.7178-10.5938C26.4157-10.5208 27.0537-10.3464 27.6318-10.0703 28.2099-9.79427 28.7073-9.44792 29.124-9.03125 29.5407-8.61458 29.8662-8.1276 30.1006-7.57031 30.3349-7.01302 30.4521-6.41667 30.4521-5.78125Z" fill="#BFBFBF" transform="matrix(1 0 0 0.99974 33.6697 54)"/></g></g><path d="M726 463.879C726 439.585 745.699 419.891 770 419.891 794.301 419.891 814 439.585 814 463.879 814 488.173 794.301 507.868 770 507.868 745.699 507.868 726 488.173 726 463.879Z" fill="url(#fill33)" fill-rule="evenodd"/><text fill="#BFBFBF" font-family="Calibri,Calibri_MSFontService,sans-serif" font-weight="400" font-size="32" transform="matrix(1 0 0 0.99974 753.841 474)">03</text><g clip-path="url(#clip34)" filter="url(#fx6)" transform="translate(587 486)"><g clip-path="url(#clip35)"><path d="M14.8292 59.1872C14.8292 34.6169 34.7525 14.6988 59.3292 14.6988 83.9058 14.6988 103.829 34.6169 103.829 59.1872 103.829 83.7574 83.9058 103.676 59.3292 103.676 34.7525 103.676 14.8292 83.7574 14.8292 59.1872Z" fill="#FF0000" fill-rule="evenodd"/></g></g><g clip-path="url(#clip36)" filter="url(#fx7)" transform="translate(596 501)"><g clip-path="url(#clip37)"><path d="M15.1094-10.1562C15.1094-8.60417 14.987-7.1875 14.7422-5.90625 14.4974-4.625 14.0911-3.52344 13.5234-2.60156 12.9557-1.67969 12.2135-0.966146 11.2969-0.460938 10.3802 0.0442708 9.25 0.296875 7.90625 0.296875 6.63542 0.296875 5.5651 0.0703125 4.69531-0.382812 3.82552-0.835938 3.125-1.5026 2.59375-2.38281 2.0625-3.26302 1.6849-4.34635 1.46094-5.63281 1.23698-6.91927 1.125-8.39583 1.125-10.0625 1.125-11.6042 1.25-13.0182 1.5-14.3047 1.75-15.5911 2.15625-16.6953 2.71875-17.6172 3.28125-18.5391 4.02083-19.2526 4.9375-19.7578 5.85417-20.263 6.97917-20.5156 8.3125-20.5156 9.59375-20.5156 10.6693-20.2891 11.5391-19.8359 12.4089-19.3828 13.1094-18.7161 13.6406-17.8359 14.1719-16.9557 14.5495-15.8724 14.7734-14.5859 14.9974-13.2995 15.1094-11.8229 15.1094-10.1562ZM12.3594-9.96875C12.3594-10.9792 12.3229-11.8854 12.25-12.6875 12.1771-13.4896 12.0703-14.1979 11.9297-14.8125 11.7891-15.4271 11.6068-15.9557 11.3828-16.3984 11.1589-16.8411 10.8906-17.2057 10.5781-17.4922 10.2656-17.7786 9.90885-17.987 9.50781-18.1172 9.10677-18.2474 8.65625-18.3125 8.15625-18.3125 7.27083-18.3125 6.55208-18.1042 6-17.6875 5.44792-17.2708 5.01302-16.6979 4.69531-15.9688 4.3776-15.2396 4.16146-14.3854 4.04688-13.4062 3.93229-12.4271 3.875-11.375 3.875-10.25 3.875-8.73958 3.95312-7.45573 4.10938-6.39844 4.26562-5.34115 4.51302-4.47917 4.85156-3.8125 5.1901-3.14583 5.6224-2.66146 6.14844-2.35938 6.67448-2.05729 7.3125-1.90625 8.0625-1.90625 8.64583-1.90625 9.15885-2 9.60156-2.1875 10.0443-2.375 10.4245-2.64323 10.7422-2.99219 11.0599-3.34115 11.3229-3.76042 11.5312-4.25 11.7396-4.73958 11.9062-5.28125 12.0312-5.875 12.1562-6.46875 12.2422-7.11198 12.2891-7.80469 12.3359-8.4974 12.3594-9.21875 12.3594-9.96875ZM31.4678-5.75C31.4678-5.40625 31.4157-5.13542 31.3115-4.9375 31.2073-4.73958 31.0615-4.64062 30.874-4.64062L28.5928-4.64062 28.5928-0.390625C28.5928-0.307292 28.5713-0.236979 28.5284-0.179688 28.4855-0.122396 28.4104-0.0729167 28.3031-0.03125 28.1957 0.0104167 28.0563 0.0416667 27.8846 0.0625 27.713 0.0833333 27.4931 0.09375 27.2248 0.09375 26.9673 0.09375 26.7528 0.0833333 26.5812 0.0625 26.4095 0.0416667 26.2727 0.0104167 26.1708-0.03125 26.0688-0.0729167 25.999-0.122396 25.9615-0.179688 25.924-0.236979 25.9053-0.307292 25.9053-0.390625L25.9053-4.64062 17.6335-4.64062C17.5095-4.64062 17.4062-4.65625 17.3236-4.6875 17.241-4.71875 17.1661-4.77604 17.099-4.85938 17.0318-4.94271 16.9854-5.0625 16.9596-5.21875 16.9338-5.375 16.9209-5.57812 16.9209-5.82812 16.9209-6.02604 16.926-6.20312 16.9364-6.35938 16.9467-6.51562 16.9673-6.65885 16.9983-6.78906 17.0292-6.91927 17.0704-7.04427 17.1219-7.16406 17.1734-7.28385 17.2353-7.41146 17.3076-7.54688L24.5146-19.8281C24.5677-19.9115 24.6447-19.9844 24.7456-20.0469 24.8465-20.1094 24.9766-20.1615 25.136-20.2031 25.2953-20.2448 25.4918-20.2734 25.7254-20.2891 25.9591-20.3047 26.2352-20.3125 26.5537-20.3125 26.9041-20.3125 27.2094-20.2995 27.4697-20.2734 27.73-20.2474 27.9397-20.2135 28.099-20.1719 28.2582-20.1302 28.3804-20.0755 28.4653-20.0078 28.5503-19.9401 28.5928-19.8594 28.5928-19.7656L28.5928-6.85938 30.874-6.85938C31.0511-6.85938 31.1943-6.76823 31.3037-6.58594 31.4131-6.40365 31.4678-6.125 31.4678-5.75ZM25.9053-17.9531 25.8745-17.9531 19.374-6.85938 25.9053-6.85938Z" fill="#BFBFBF" transform="matrix(1 0 0 0.99974 34.0983 55)"/></g></g><path d="M599 542.359C599 517.788 618.923 497.87 643.5 497.87 668.077 497.87 688 517.788 688 542.359 688 566.929 668.077 586.847 643.5 586.847 618.923 586.847 599 566.929 599 542.359Z" fill="url(#fill38)" fill-rule="evenodd"/><text fill="#BFBFBF" font-family="Calibri,Calibri_MSFontService,sans-serif" font-weight="400" font-size="32" transform="matrix(1 0 0 0.99974 627.269 553)">04</text><g clip-path="url(#clip39)" filter="url(#fx8)" transform="translate(454 413)"><g clip-path="url(#clip40)"><path d="M14.8292 58.7063C14.8292 34.4121 34.7525 14.7178 59.3292 14.7178 83.9058 14.7178 103.829 34.4121 103.829 58.7063 103.829 83.0005 83.9058 102.695 59.3292 102.695 34.7525 102.695 14.8292 83.0005 14.8292 58.7063Z" fill="#FF0000" fill-rule="evenodd"/></g></g><g clip-path="url(#clip41)" filter="url(#fx9)" transform="translate(463 428)"><g clip-path="url(#clip42)"><path d="M15.1094-10.1562C15.1094-8.60417 14.987-7.1875 14.7422-5.90625 14.4974-4.625 14.0911-3.52344 13.5234-2.60156 12.9557-1.67969 12.2135-0.966146 11.2969-0.460938 10.3802 0.0442708 9.25 0.296875 7.90625 0.296875 6.63542 0.296875 5.5651 0.0703125 4.69531-0.382812 3.82552-0.835938 3.125-1.5026 2.59375-2.38281 2.0625-3.26302 1.6849-4.34635 1.46094-5.63281 1.23698-6.91927 1.125-8.39583 1.125-10.0625 1.125-11.6042 1.25-13.0182 1.5-14.3047 1.75-15.5911 2.15625-16.6953 2.71875-17.6172 3.28125-18.5391 4.02083-19.2526 4.9375-19.7578 5.85417-20.263 6.97917-20.5156 8.3125-20.5156 9.59375-20.5156 10.6693-20.2891 11.5391-19.8359 12.4089-19.3828 13.1094-18.7161 13.6406-17.8359 14.1719-16.9557 14.5495-15.8724 14.7734-14.5859 14.9974-13.2995 15.1094-11.8229 15.1094-10.1562ZM12.3594-9.96875C12.3594-10.9792 12.3229-11.8854 12.25-12.6875 12.1771-13.4896 12.0703-14.1979 11.9297-14.8125 11.7891-15.4271 11.6068-15.9557 11.3828-16.3984 11.1589-16.8411 10.8906-17.2057 10.5781-17.4922 10.2656-17.7786 9.90885-17.987 9.50781-18.1172 9.10677-18.2474 8.65625-18.3125 8.15625-18.3125 7.27083-18.3125 6.55208-18.1042 6-17.6875 5.44792-17.2708 5.01302-16.6979 4.69531-15.9688 4.3776-15.2396 4.16146-14.3854 4.04688-13.4062 3.93229-12.4271 3.875-11.375 3.875-10.25 3.875-8.73958 3.95312-7.45573 4.10938-6.39844 4.26562-5.34115 4.51302-4.47917 4.85156-3.8125 5.1901-3.14583 5.6224-2.66146 6.14844-2.35938 6.67448-2.05729 7.3125-1.90625 8.0625-1.90625 8.64583-1.90625 9.15885-2 9.60156-2.1875 10.0443-2.375 10.4245-2.64323 10.7422-2.99219 11.0599-3.34115 11.3229-3.76042 11.5312-4.25 11.7396-4.73958 11.9062-5.28125 12.0312-5.875 12.1562-6.46875 12.2422-7.11198 12.2891-7.80469 12.3359-8.4974 12.3594-9.21875 12.3594-9.96875ZM30.5146-6.5C30.5146-5.41667 30.3323-4.45312 29.9678-3.60938 29.6032-2.76562 29.0875-2.05469 28.4209-1.47656 27.7542-0.898438 26.9599-0.458333 26.0381-0.15625 25.1162 0.145833 24.0928 0.296875 22.9678 0.296875 22.3428 0.296875 21.749 0.252604 21.1865 0.164062 20.624 0.0755208 20.124-0.0338542 19.6865-0.164062 19.249-0.294271 18.8896-0.421875 18.6084-0.546875 18.3271-0.671875 18.1474-0.770833 18.0693-0.84375 17.9912-0.916667 17.9365-0.984375 17.9053-1.04688 17.874-1.10938 17.8454-1.1849 17.8193-1.27344 17.7933-1.36198 17.775-1.47396 17.7646-1.60938 17.7542-1.74479 17.749-1.90625 17.749-2.09375 17.749-2.27083 17.7568-2.42969 17.7724-2.57031 17.7881-2.71094 17.8167-2.82552 17.8584-2.91406 17.9-3.0026 17.9495-3.06771 18.0068-3.10938 18.0641-3.15104 18.1292-3.17188 18.2021-3.17188 18.3063-3.17188 18.4678-3.10677 18.6865-2.97656 18.9053-2.84635 19.1995-2.70573 19.5693-2.55469 19.9391-2.40365 20.3974-2.26042 20.9443-2.125 21.4912-1.98958 22.1396-1.92187 22.8896-1.92188 23.5875-1.92187 24.2282-2.00521 24.8115-2.17188 25.3948-2.33854 25.8974-2.59896 26.3193-2.95312 26.7412-3.30729 27.0719-3.7526 27.3115-4.28906 27.5511-4.82552 27.6709-5.47917 27.6709-6.25 27.6709-6.89583 27.5693-7.46615 27.3662-7.96094 27.1631-8.45573 26.8506-8.86719 26.4287-9.19531 26.0068-9.52344 25.473-9.76823 24.8271-9.92969 24.1813-10.0911 23.4105-10.1719 22.5146-10.1719 21.8792-10.1719 21.3323-10.1406 20.874-10.0781 20.4157-10.0156 19.9886-9.98438 19.5928-9.98438 19.3011-9.98438 19.0928-10.0521 18.9678-10.1875 18.8428-10.3229 18.7803-10.5833 18.7803-10.9688L18.7803-19.2031C18.7803-19.5469 18.861-19.8021 19.0224-19.9688 19.1839-20.1354 19.4157-20.2188 19.7178-20.2188L28.6709-20.2188C28.7542-20.2188 28.8349-20.1953 28.9131-20.1484 28.9912-20.1016 29.0563-20.0312 29.1084-19.9375 29.1605-19.8438 29.1995-19.724 29.2256-19.5781 29.2516-19.4323 29.2646-19.2604 29.2646-19.0625 29.2646-18.6875 29.2147-18.3958 29.115-18.1875 29.0152-17.9792 28.8755-17.875 28.696-17.875L21.4678-17.875 21.4678-12.2031C21.819-12.2552 22.1778-12.2865 22.544-12.2969 22.9103-12.3073 23.3344-12.3125 23.8161-12.3125 24.9299-12.3125 25.9033-12.1745 26.7363-11.8984 27.5693-11.6224 28.2643-11.2318 28.8213-10.7266 29.3782-10.2214 29.7997-9.60938 30.0857-8.89062 30.3716-8.17188 30.5146-7.375 30.5146-6.5Z" fill="#BFBFBF" transform="matrix(1 0 0 0.99974 34.2874 55)"/></g></g><path d="M466 468.878C466 444.584 485.923 424.889 510.5 424.889 535.077 424.889 555 444.584 555 468.878 555 493.172 535.077 512.866 510.5 512.866 485.923 512.866 466 493.172 466 468.878Z" fill="url(#fill43)" fill-rule="evenodd"/><text fill="#BFBFBF" font-family="Calibri,Calibri_MSFontService,sans-serif" font-weight="400" font-size="32" transform="matrix(1 0 0 0.99974 494.458 480)">05</text><g clip-path="url(#clip44)" filter="url(#fx10)" transform="translate(451 262)"><g clip-path="url(#clip45)"><path d="M14.8292 58.7456C14.8292 34.4514 34.5287 14.757 58.8292 14.757 83.1297 14.757 102.829 34.4514 102.829 58.7456 102.829 83.0398 83.1297 102.734 58.8292 102.734 34.5287 102.734 14.8292 83.0398 14.8292 58.7456Z" fill="#FF0000" fill-rule="evenodd"/></g></g><g clip-path="url(#clip46)" filter="url(#fx11)" transform="translate(460 277)"><g clip-path="url(#clip47)"><path d="M15.1094-10.1562C15.1094-8.60417 14.987-7.1875 14.7422-5.90625 14.4974-4.625 14.0911-3.52344 13.5234-2.60156 12.9557-1.67969 12.2135-0.966146 11.2969-0.460938 10.3802 0.0442708 9.25 0.296875 7.90625 0.296875 6.63542 0.296875 5.5651 0.0703125 4.69531-0.382812 3.82552-0.835938 3.125-1.5026 2.59375-2.38281 2.0625-3.26302 1.6849-4.34635 1.46094-5.63281 1.23698-6.91927 1.125-8.39583 1.125-10.0625 1.125-11.6042 1.25-13.0182 1.5-14.3047 1.75-15.5911 2.15625-16.6953 2.71875-17.6172 3.28125-18.5391 4.02083-19.2526 4.9375-19.7578 5.85417-20.263 6.97917-20.5156 8.3125-20.5156 9.59375-20.5156 10.6693-20.2891 11.5391-19.8359 12.4089-19.3828 13.1094-18.7161 13.6406-17.8359 14.1719-16.9557 14.5495-15.8724 14.7734-14.5859 14.9974-13.2995 15.1094-11.8229 15.1094-10.1562ZM12.3594-9.96875C12.3594-10.9792 12.3229-11.8854 12.25-12.6875 12.1771-13.4896 12.0703-14.1979 11.9297-14.8125 11.7891-15.4271 11.6068-15.9557 11.3828-16.3984 11.1589-16.8411 10.8906-17.2057 10.5781-17.4922 10.2656-17.7786 9.90885-17.987 9.50781-18.1172 9.10677-18.2474 8.65625-18.3125 8.15625-18.3125 7.27083-18.3125 6.55208-18.1042 6-17.6875 5.44792-17.2708 5.01302-16.6979 4.69531-15.9688 4.3776-15.2396 4.16146-14.3854 4.04688-13.4062 3.93229-12.4271 3.875-11.375 3.875-10.25 3.875-8.73958 3.95312-7.45573 4.10938-6.39844 4.26562-5.34115 4.51302-4.47917 4.85156-3.8125 5.1901-3.14583 5.6224-2.66146 6.14844-2.35938 6.67448-2.05729 7.3125-1.90625 8.0625-1.90625 8.64583-1.90625 9.15885-2 9.60156-2.1875 10.0443-2.375 10.4245-2.64323 10.7422-2.99219 11.0599-3.34115 11.3229-3.76042 11.5312-4.25 11.7396-4.73958 11.9062-5.28125 12.0312-5.875 12.1562-6.46875 12.2422-7.11198 12.2891-7.80469 12.3359-8.4974 12.3594-9.21875 12.3594-9.96875ZM31.124-6.54688C31.124-5.66146 30.9886-4.80469 30.7178-3.97656 30.4469-3.14844 30.0303-2.41927 29.4678-1.78906 28.9053-1.15885 28.1917-0.653646 27.3271-0.273438 26.4625 0.106771 25.4417 0.296875 24.2646 0.296875 23.4209 0.296875 22.6761 0.192708 22.0303-0.015625 21.3844-0.223958 20.8219-0.520833 20.3428-0.90625 19.8636-1.29167 19.4651-1.76562 19.1474-2.32812 18.8297-2.89062 18.5745-3.53125 18.3818-4.25 18.1891-4.96875 18.0511-5.75521 17.9678-6.60938 17.8844-7.46354 17.8428-8.38021 17.8428-9.35938 17.8428-10.224 17.8896-11.099 17.9834-11.9844 18.0771-12.8698 18.2438-13.724 18.4834-14.5469 18.723-15.3698 19.0485-16.1432 19.4599-16.8672 19.8714-17.5911 20.387-18.2214 21.0068-18.7578 21.6266-19.2943 22.3688-19.7188 23.2334-20.0312 24.098-20.3438 25.1032-20.5 26.249-20.5 26.6344-20.5 27.025-20.4766 27.4209-20.4297 27.8167-20.3828 28.1813-20.3203 28.5146-20.2422 28.848-20.1641 29.1292-20.0781 29.3584-19.9844 29.5875-19.8906 29.7386-19.8151 29.8115-19.7578 29.8844-19.7005 29.9391-19.638 29.9756-19.5703 30.012-19.5026 30.0407-19.4297 30.0615-19.3516 30.0823-19.2734 30.098-19.1849 30.1084-19.0859 30.1188-18.987 30.124-18.8646 30.124-18.7188 30.124-18.5312 30.1214-18.3698 30.1162-18.2344 30.111-18.099 30.0901-17.9896 30.0537-17.9062 30.0172-17.8229 29.9704-17.7604 29.9131-17.7188 29.8558-17.6771 29.7803-17.6562 29.6865-17.6562 29.5719-17.6562 29.4157-17.6927 29.2178-17.7656 29.0198-17.8385 28.7803-17.9193 28.499-18.0078 28.2178-18.0964 27.8766-18.1771 27.4756-18.25 27.0745-18.3229 26.6084-18.3594 26.0771-18.3594 25.1084-18.3594 24.275-18.1615 23.5771-17.7656 22.8792-17.3698 22.3089-16.8385 21.8662-16.1719 21.4235-15.5052 21.0954-14.7318 20.8818-13.8516 20.6683-12.9714 20.5459-12.0521 20.5146-11.0938 20.7855-11.25 21.0901-11.4062 21.4287-11.5625 21.7672-11.7188 22.137-11.8594 22.5381-11.9844 22.9391-12.1094 23.3636-12.2109 23.8115-12.2891 24.2594-12.3672 24.7386-12.4062 25.249-12.4062 26.3428-12.4062 27.2646-12.2578 28.0146-11.9609 28.7646-11.6641 29.3714-11.2526 29.8349-10.7266 30.2985-10.2005 30.6292-9.58073 30.8271-8.86719 31.025-8.15365 31.124-7.38021 31.124-6.54688ZM28.4053-6.29688C28.4053-6.90104 28.3454-7.45052 28.2256-7.94531 28.1058-8.4401 27.9053-8.85938 27.624-9.20312 27.3428-9.54688 26.9678-9.8125 26.499-10 26.0303-10.1875 25.4521-10.2812 24.7646-10.2812 24.3792-10.2812 23.9938-10.2474 23.6084-10.1797 23.223-10.112 22.8506-10.0182 22.4912-9.89844 22.1318-9.77865 21.7881-9.63802 21.4599-9.47656 21.1318-9.3151 20.8323-9.14062 20.5615-8.95312 20.5615-7.60937 20.6474-6.48437 20.8193-5.57812 20.9912-4.67188 21.2412-3.94531 21.5693-3.39844 21.8974-2.85156 22.3063-2.46094 22.7959-2.22656 23.2855-1.99219 23.8584-1.875 24.5146-1.875 25.1813-1.875 25.7594-2 26.249-2.25 26.7386-2.5 27.1448-2.83594 27.4678-3.25781 27.7907-3.67969 28.0276-4.15365 28.1787-4.67969 28.3297-5.20573 28.4053-5.74479 28.4053-6.29688Z" fill="#BFBFBF" transform="matrix(1 0 0 0.99974 33.6501 55)"/></g></g><path d="M463 317.917C463 293.623 482.7 273.929 507 273.929 531.301 273.929 551 293.623 551 317.917 551 342.211 531.301 361.906 507 361.906 482.7 361.906 463 342.211 463 317.917Z" fill="url(#fill48)" fill-rule="evenodd"/><text fill="#BFBFBF" font-family="Calibri,Calibri_MSFontService,sans-serif" font-weight="400" font-size="32" transform="matrix(1 0 0 0.99974 490.821 329)">06</text><path d="M638.012 160.958 648 173.923 644.752 173.446C642.567 173.232 640.351 173.122 638.107 173.122 635.864 173.122 633.648 173.232 631.463 173.446L628 173.955 638.012 160.958Z" fill="#A6A6A6" fill-rule="evenodd"/><path d="M583.5 202.447C595.42 184.955 615.605 173.455 638.5 173.455 661.395 173.455 681.58 184.955 693.5 202.447" stroke="#A6A6A6" stroke-width="2.66736" stroke-linejoin="round" stroke-miterlimit="10" fill="none" fill-rule="evenodd"/><path d="M840.085 278.436 833.481 293.678 832.297 290.644C831.404 288.659 830.403 286.701 829.291 284.775 828.179 282.85 826.983 281.004 825.71 279.239L823.54 276.529 840.085 278.436Z" fill="#A6A6A6" fill-rule="evenodd"/><path d="M776.65 251.485C797.914 252.987 818.076 264.679 829.537 284.525 840.998 304.37 841.045 327.673 831.714 346.834" stroke="#A6A6A6" stroke-width="2.66684" stroke-linejoin="round" stroke-miterlimit="10" fill="none" fill-rule="evenodd"/><path d="M9.92316 0 19.8223 13.3395 16.6028 12.8482C14.4377 12.6283 12.2407 12.5156 10.0175 12.5156 7.79434 12.5156 5.59746 12.6283 3.43225 12.8482L0 13.372 9.92316 0Z" fill="#A6A6A6" fill-rule="evenodd" transform="matrix(0.500098 -0.865969 -0.866195 -0.499967 834.613 512.791)"/><path d="M0 29.2718C11.9312 11.6113 32.1365 0 55.0537 0 77.9709 0 98.1761 11.6113 110.107 29.2718" stroke="#A6A6A6" stroke-width="2.66684" stroke-linejoin="round" stroke-miterlimit="10" fill="none" fill-rule="evenodd" transform="matrix(0.500098 -0.865969 -0.866195 -0.499967 801.496 545.785)"/><path d="M10.0095 0 19.9949 13.9624 16.7474 13.448C14.5634 13.2179 12.3473 13.1 10.1048 13.1 7.8622 13.1 5.64619 13.2179 3.46213 13.448L0 13.9963 10.0095 0Z" fill="#A6A6A6" fill-rule="evenodd" transform="matrix(1.00026 0 0 -1 632 621.838)"/><path d="M0 29.9921C11.9165 11.897 32.0968 0 54.9857 0 77.8746 0 98.0549 11.897 109.971 29.9921" stroke="#A6A6A6" stroke-width="2.66667" stroke-linejoin="round" stroke-miterlimit="10" fill="none" fill-rule="evenodd" transform="matrix(1.00026 0 0 -1 587.5 610.341)"/><path d="M441.702 509.059 448.306 493.817 449.49 496.851C450.383 498.835 451.384 500.794 452.496 502.719 453.607 504.645 454.804 506.491 456.077 508.256L458.247 510.966 441.702 509.059Z" fill="#A6A6A6" fill-rule="evenodd"/><path d="M505.137 536.01C483.873 534.508 463.711 522.816 452.25 502.97 440.789 483.125 440.742 459.822 450.073 440.661" stroke="#A6A6A6" stroke-width="2.66684" stroke-linejoin="round" stroke-miterlimit="10" fill="none" fill-rule="evenodd"/><path d="M9.92316 0 19.8223 13.3395 16.6028 12.8482C14.4377 12.6283 12.2407 12.5156 10.0175 12.5156 7.79434 12.5156 5.59746 12.6283 3.43225 12.8482L0 13.372 9.92316 0Z" fill="#A6A6A6" fill-rule="evenodd" transform="matrix(-0.500098 0.865969 0.866195 0.499967 443.691 269.843)"/><path d="M0 29.2718C11.9312 11.6113 32.1365 0 55.0537 0 77.9709 0 98.1761 11.6113 110.107 29.2718" stroke="#A6A6A6" stroke-width="2.66684" stroke-linejoin="round" stroke-miterlimit="10" fill="none" fill-rule="evenodd" transform="matrix(-0.500098 0.865969 0.866195 0.499967 476.809 236.85)"/><text fill="#404040" font-family="Cambria,Cambria_MSFontService,sans-serif" font-weight="700" font-size="24" transform="matrix(1 0 0 0.99974 859.376 267)">problem analysis<tspan font-size="24" x="-6.5473" y="256.067">Algorithm development</tspan><tspan font-size="24" x="-583.892" y="-4.00104">maintenance</tspan><tspan font-size="24" x="-677.896" y="252.066">testing and debugging</tspan><tspan font-size="24" x="-360.506" y="389.101">coding and documentation</tspan><tspan font-size="24" x="-325.517" y="-130.034">problem definition</tspan></text></g></svg>