<svg width="1280" height="720" xmlns="http://www.w3.org/2000/svg" xmlns:xlink="http://www.w3.org/1999/xlink" overflow="hidden"><defs><clipPath id="clip0"><rect x="0" y="0" width="1280" height="720"/></clipPath><radialGradient cx="0.5" cy="6.85621e+06" r="1.39848e+07" fx="0" fy="6.85621e+06" gradientUnits="userSpaceOnUse" spreadMethod="pad" id="fill1" gradientTransform="scale(0.000105014 0.000104987)"><stop offset="0" stop-color="#F0FEFD"/><stop offset="0.29" stop-color="#F0FEFD"/><stop offset="0.56" stop-color="#F6E8F2"/><stop offset="0.9" stop-color="#D9D9D9"/><stop offset="1" stop-color="#D9D9D9"/></radialGradient></defs><g clip-path="url(#clip0)"><rect x="0" y="0" width="1280" height="719.812" fill="url(#fill1)"/><text fill="#404040" font-family="Arial Black,Arial Black_MSFontService,sans-serif" font-weight="900" font-size="48" transform="matrix(1 0 0 0.99974 314.042 82)">8 Step of Website design</text><path d="M1137.33 331.913 1172 366.841 1169.46 367.375 1166.65 368.068 1163.53 368.921 1160.2 369.934 1156.7 371.107 1152.94 372.494 1149.03 374.147 1144.95 376.013 1140.77 378.146 1136.48 380.546 1132.04 383.159 1127.59 386.145 1123.09 389.451 1118.54 393.024 1113.99 397.023 1109.43 401.343 1105.04 405.928 1101.07 410.461 1097.53 414.994 1094.3 419.473 1091.44 423.899 1088.79 428.218 1086.57 432.484 1084.56 436.59 1082.86 440.59 1081.38 444.429 1080.16 448.055 1079.11 451.468 1078.21 454.721 1077.57 457.707 1077.04 460.427 1076.62 462.879 1042 428.005 1044.43 427.525 1047.08 426.885 1050.05 426.085 1053.17 425.125 1056.56 424.006 1060.05 422.566 1063.81 420.966 1067.62 419.153 1071.64 417.02 1075.72 414.62 1079.95 412.008 1084.29 409.075 1088.63 405.768 1093.13 402.142 1097.58 398.196 1102.08 393.93 1106.47 389.398 1110.49 384.812 1114.09 380.332 1117.53 375.8 1120.5 371.427 1123.25 367.055 1125.74 362.789 1127.86 358.683 1129.81 354.683 1131.51 350.897 1132.88 347.164 1134.15 343.698 1135.21 340.392 1136.06 337.299 1136.8 334.526 1137.33 331.913Z" fill="#D08BBC" fill-rule="evenodd"/><path d="M1134 339.412C1134 322.019 1147.88 307.92 1165 307.92 1182.12 307.92 1196 322.019 1196 339.412 1196 356.804 1182.12 370.903 1165 370.903 1147.88 370.903 1134 356.804 1134 339.412Z" fill="#D1643C" fill-rule="evenodd"/><path d="M203.33 331.913 238 366.841 235.459 367.375 232.654 368.068 229.531 368.921 226.196 369.934 222.703 371.107 218.945 372.494 215.028 374.147 210.952 376.013 206.77 378.146 202.483 380.546 198.037 383.159 193.59 386.145 189.091 389.451 184.539 393.024 179.987 397.023 175.435 401.343 171.042 405.928 167.072 410.461 163.525 414.994 160.296 419.473 157.438 423.899 154.792 428.218 152.568 432.484 150.557 436.59 148.863 440.59 147.381 444.429 146.164 448.055 145.105 451.468 144.205 454.721 143.57 457.707 143.041 460.427 142.617 462.879 108 428.005 110.435 427.525 113.081 426.885 116.046 426.085 119.169 425.125 122.556 424.006 126.05 422.566 129.808 420.966 133.619 419.153 137.642 417.02 141.717 414.62 145.952 412.008 150.292 409.075 154.633 405.768 159.132 402.142 163.578 398.196 168.077 393.93 172.471 389.398 176.493 384.812 180.093 380.332 183.533 375.8 186.498 371.427 189.25 367.055 191.738 362.789 193.855 358.683 195.814 354.683 197.507 350.897 198.884 347.164 200.154 343.698 201.213 340.392 202.059 337.299 202.801 334.526 203.33 331.913Z" fill="#0CB5A6" fill-rule="evenodd"/><path d="M95.3049 0 129.966 34.9278 127.426 35.4611 124.621 36.1543 121.499 37.0075 118.165 38.0207 114.673 39.1938 110.916 40.5803 107 42.2333 102.925 44.0997 98.7446 46.2327 94.4583 48.6323 90.0132 51.2452 85.5681 54.2314 81.0701 57.5376 76.5191 61.1103 71.9682 65.1097 67.4173 69.429 63.0251 74.015 59.0563 78.5476 55.5108 83.0802 52.2828 87.5595 49.4252 91.9855 46.7793 96.3048 44.5568 100.571 42.5459 104.677 40.8525 108.676 39.3708 112.516 38.1537 116.142 37.0954 119.554 36.1958 122.807 35.5608 125.793 35.0316 128.513 34.6082 130.966 0 96.0915 2.43422 95.6116 5.08011 94.9717 8.0435 94.1718 11.1657 93.2119 14.5524 92.0921 18.045 90.6523 21.8021 89.0526 25.6122 87.2395 29.634 85.1066 33.7086 82.7069 37.9421 80.094 42.2813 77.1611 46.6206 73.855 51.1186 70.2289 55.5637 66.2829 60.0617 62.0169 64.4539 57.4843 68.4756 52.8983 72.074 48.419 75.5137 43.8864 78.4771 39.5138 81.2288 35.1411 83.7159 30.8751 85.8326 26.7691 87.7906 22.7697 89.484 18.9837 90.8598 15.2509 92.1299 11.7848 93.1882 8.47866 94.0349 5.38582 94.7758 2.61292 95.3049 0Z" fill="#D08BBC" fill-rule="evenodd" transform="matrix(-1.00026 0 0 1 355 331.913)"/><path d="M437.33 331.913 472 366.841 469.459 367.375 466.654 368.068 463.531 368.921 460.196 369.934 456.703 371.107 452.945 372.494 449.028 374.147 444.952 376.013 440.77 378.146 436.483 380.546 432.037 383.159 427.59 386.145 423.091 389.451 418.539 393.024 413.987 397.023 409.435 401.343 405.042 405.928 401.072 410.461 397.525 414.994 394.296 419.473 391.438 423.899 388.792 428.218 386.568 432.484 384.557 436.59 382.863 440.59 381.381 444.429 380.164 448.055 379.105 451.468 378.205 454.721 377.57 457.707 377.041 460.427 376.617 462.879 342 428.005 344.435 427.525 347.081 426.885 350.046 426.085 353.169 425.125 356.556 424.006 360.05 422.566 363.808 420.966 367.619 419.153 371.642 417.02 375.717 414.62 379.952 412.008 384.292 409.075 388.633 405.768 393.132 402.142 397.578 398.196 402.077 393.93 406.471 389.398 410.493 384.812 414.093 380.332 417.533 375.8 420.498 371.427 423.25 367.055 425.738 362.789 427.855 358.683 429.814 354.683 431.507 350.897 432.884 347.164 434.154 343.698 435.213 340.392 436.059 337.299 436.8 334.526 437.33 331.913Z" fill="#F9A34C" fill-rule="evenodd"/><path d="M95.3049 0 129.966 34.9278 127.426 35.4611 124.621 36.1543 121.499 37.0075 118.165 38.0207 114.673 39.1938 110.916 40.5803 107 42.2333 102.925 44.0997 98.7446 46.2327 94.4583 48.6323 90.0132 51.2452 85.5681 54.2314 81.0701 57.5376 76.5191 61.1103 71.9682 65.1097 67.4173 69.429 63.0251 74.015 59.0563 78.5476 55.5108 83.0802 52.2828 87.5595 49.4252 91.9855 46.7793 96.3048 44.5568 100.571 42.5459 104.677 40.8525 108.676 39.3708 112.516 38.1537 116.142 37.0954 119.554 36.1958 122.807 35.5608 125.793 35.0316 128.513 34.6082 130.966 0 96.0915 2.43422 95.6116 5.08011 94.9717 8.0435 94.1718 11.1657 93.2119 14.5524 92.0921 18.045 90.6523 21.8021 89.0526 25.6122 87.2395 29.634 85.1066 33.7086 82.7069 37.9421 80.094 42.2813 77.1611 46.6206 73.855 51.1186 70.2289 55.5637 66.2829 60.0617 62.0169 64.4539 57.4843 68.4756 52.8983 72.074 48.419 75.5137 43.8864 78.4771 39.5138 81.2288 35.1411 83.7159 30.8751 85.8326 26.7691 87.7906 22.7697 89.484 18.9837 90.8598 15.2509 92.1299 11.7848 93.1882 8.47866 94.0349 5.38582 94.7758 2.61292 95.3049 0Z" fill="#E6529B" fill-rule="evenodd" transform="matrix(-1.00026 0 0 1 588 331.913)"/><path d="M670.33 331.913 705 366.841 702.459 367.375 699.654 368.068 696.531 368.921 693.196 369.934 689.703 371.107 685.945 372.494 682.028 374.147 677.952 376.013 673.77 378.146 669.483 380.546 665.037 383.159 660.59 386.145 656.091 389.451 651.539 393.024 646.987 397.023 642.435 401.343 638.042 405.928 634.072 410.461 630.525 414.994 627.296 419.473 624.438 423.899 621.792 428.218 619.568 432.484 617.557 436.59 615.863 440.59 614.381 444.429 613.164 448.055 612.105 451.468 611.205 454.721 610.57 457.707 610.041 460.427 609.617 462.879 575 428.005 577.435 427.525 580.081 426.885 583.046 426.085 586.169 425.125 589.556 424.006 593.05 422.566 596.808 420.966 600.619 419.153 604.642 417.02 608.717 414.62 612.952 412.008 617.292 409.075 621.633 405.768 626.132 402.142 630.578 398.196 635.077 393.93 639.471 389.398 643.493 384.812 647.093 380.332 650.533 375.8 653.497 371.427 656.25 367.055 658.738 362.789 660.855 358.683 662.813 354.683 664.507 350.897 665.883 347.164 667.154 343.698 668.213 340.392 669.059 337.299 669.8 334.526 670.33 331.913Z" fill="#888AC3" fill-rule="evenodd"/><path d="M95.305 0 129.966 34.9278 127.426 35.4611 124.621 36.1543 121.499 37.0075 118.166 38.0207 114.673 39.1938 110.916 40.5803 107 42.2333 102.925 44.0997 98.7447 46.2327 94.4583 48.6323 90.0132 51.2452 85.5681 54.2314 81.0701 57.5376 76.5192 61.1103 71.9682 65.1097 67.4173 69.429 63.0251 74.015 59.0563 78.5476 55.5108 83.0802 52.2828 87.5595 49.4253 91.9855 46.7794 96.3048 44.5568 100.571 42.5459 104.677 40.8526 108.676 39.3709 112.516 38.1538 116.142 37.0954 119.554 36.1958 122.807 35.5608 125.793 35.0316 128.513 34.6083 130.966 0 96.0915 2.43422 95.6116 5.08011 94.9717 8.04351 94.1718 11.1657 93.2119 14.5524 92.0921 18.045 90.6523 21.8021 89.0526 25.6122 87.2395 29.634 85.1066 33.7087 82.7069 37.9421 80.094 42.2813 77.1611 46.6206 73.855 51.1186 70.2289 55.5637 66.2829 60.0617 62.0169 64.4539 57.4843 68.4757 52.8983 72.0741 48.419 75.5137 43.8864 78.4771 39.5138 81.2289 35.1411 83.716 30.8751 85.8327 26.7691 87.7907 22.7697 89.4841 18.9837 90.8599 15.2509 92.1299 11.7848 93.1883 8.47866 94.035 5.38582 94.7758 2.61292 95.305 0Z" fill="#43B0E4" fill-rule="evenodd" transform="matrix(-1.00026 0 0 1 821 331.913)"/><path d="M903.063 331.913 938 366.841 935.44 367.375 932.613 368.068 929.466 368.921 926.105 369.934 922.585 371.107 918.798 372.494 914.851 374.147 910.744 376.013 906.53 378.146 902.21 380.546 897.729 383.159 893.249 386.145 888.715 389.451 884.128 393.024 879.541 397.023 874.954 401.343 870.526 405.928 866.526 410.461 862.952 414.994 859.699 419.473 856.818 423.899 854.151 428.218 851.911 432.484 849.884 436.59 848.177 440.59 846.684 444.429 845.457 448.055 844.391 451.468 843.484 454.721 842.844 457.707 842.31 460.427 841.884 462.879 807 428.005 809.454 427.525 812.121 426.885 815.107 426.085 818.254 425.125 821.668 424.006 825.189 422.566 828.976 420.966 832.816 419.153 836.87 417.02 840.977 414.62 845.244 412.008 849.618 409.075 853.991 405.768 858.525 402.142 863.006 398.196 867.539 393.93 871.967 389.398 876.02 384.812 879.647 380.332 883.114 375.8 886.101 371.427 888.875 367.055 891.382 362.789 893.516 358.683 895.489 354.683 897.196 350.897 898.583 347.164 899.863 343.698 900.93 340.392 901.783 337.299 902.53 334.526 903.063 331.913Z" fill="#BCD978" fill-rule="evenodd"/><path d="M95.3049 0 129.966 34.9278 127.426 35.4611 124.621 36.1543 121.499 37.0075 118.165 38.0207 114.673 39.1938 110.916 40.5803 107 42.2333 102.925 44.0997 98.7446 46.2327 94.4583 48.6323 90.0132 51.2452 85.5681 54.2314 81.0701 57.5376 76.5191 61.1103 71.9682 65.1097 67.4173 69.429 63.0251 74.015 59.0563 78.5476 55.5108 83.0802 52.2828 87.5595 49.4252 91.9855 46.7793 96.3048 44.5568 100.571 42.5459 104.677 40.8525 108.676 39.3708 112.516 38.1537 116.142 37.0954 119.554 36.1958 122.807 35.5608 125.793 35.0316 128.513 34.6082 130.966 0 96.0915 2.43422 95.6116 5.08011 94.9717 8.0435 94.1718 11.1657 93.2119 14.5524 92.0921 18.045 90.6523 21.8021 89.0526 25.6122 87.2395 29.634 85.1066 33.7086 82.7069 37.9421 80.094 42.2813 77.1611 46.6206 73.855 51.1186 70.2289 55.5637 66.2829 60.0617 62.0169 64.4539 57.4843 68.4756 52.8983 72.074 48.419 75.5137 43.8864 78.4771 39.5138 81.2288 35.1411 83.7159 30.8751 85.8326 26.7691 87.7906 22.7697 89.484 18.9837 90.8598 15.2509 92.1299 11.7848 93.1882 8.47866 94.0349 5.38582 94.7758 2.61292 95.3049 0Z" fill="#0CB5A6" fill-rule="evenodd" transform="matrix(-1.00026 0 0 1 1053 331.913)"/><path d="M200 339.412C200 322.019 214.103 307.92 231.5 307.92 248.897 307.92 263 322.019 263 339.412 263 356.804 248.897 370.903 231.5 370.903 214.103 370.903 200 356.804 200 339.412Z" fill="#0E6579" fill-rule="evenodd"/><path d="M434 339.412C434 322.019 447.879 307.92 465 307.92 482.121 307.92 496 322.019 496 339.412 496 356.804 482.121 370.903 465 370.903 447.879 370.903 434 356.804 434 339.412Z" fill="#E63A33" fill-rule="evenodd"/><path d="M666 339.412C666 322.019 680.103 307.92 697.5 307.92 714.897 307.92 729 322.019 729 339.412 729 356.804 714.897 370.903 697.5 370.903 680.103 370.903 666 356.804 666 339.412Z" fill="#2763AE" fill-rule="evenodd"/><path d="M899 339.412C899 322.019 913.103 307.92 930.5 307.92 947.897 307.92 962 322.019 962 339.412 962 356.804 947.897 370.903 930.5 370.903 913.103 370.903 899 356.804 899 339.412Z" fill="#91C172" fill-rule="evenodd"/><path d="M84 455.881C84 438.765 97.8792 424.889 115 424.889 132.121 424.889 146 438.765 146 455.881 146 472.998 132.121 486.873 115 486.873 97.8792 486.873 84 472.998 84 455.881Z" fill="#0CB5A6" fill-rule="evenodd"/><path d="M0 30.9919C-3.94568e-15 13.8756 13.8756-3.94568e-15 30.9919-7.89137e-15 48.1083-1.57827e-14 61.9838 13.8756 61.9838 30.9919 61.9838 48.1083 48.1083 61.9838 30.9919 61.9838 13.8756 61.9838-1.97284e-14 48.1083 0 30.9919Z" fill="#D1643C" fill-rule="evenodd" transform="matrix(-1.00026 0 0 1 379 424.889)"/><path d="M0 30.9919C-3.94568e-15 13.8756 13.8756-3.94568e-15 30.9919-7.89137e-15 48.1083-1.57827e-14 61.9838 13.8756 61.9838 30.9919 61.9838 48.1083 48.1083 61.9838 30.9919 61.9838 13.8756 61.9838-1.97284e-14 48.1083 0 30.9919Z" fill="#732670" fill-rule="evenodd" transform="matrix(-1.00026 0 0 1 612 424.889)"/><path d="M0 30.9919C-3.94568e-15 13.8756 13.8756-3.94568e-15 30.9919-7.89137e-15 48.1083-1.57827e-14 61.9838 13.8756 61.9838 30.9919 61.9838 48.1083 48.1083 61.9838 30.9919 61.9838 13.8756 61.9838-1.97284e-14 48.1083 0 30.9919Z" fill="#3F9B6B" fill-rule="evenodd" transform="matrix(-1.00026 0 0 1 845 424.889)"/><path d="M0 30.9919C-4.00933e-15 13.8756 14.0994-3.94568e-15 31.4918-7.89137e-15 48.8843-1.57827e-14 62.9836 13.8756 62.9836 30.9919 62.9836 48.1083 48.8843 61.9838 31.4918 61.9838 14.0994 61.9838-2.00466e-14 48.1083 0 30.9919Z" fill="#0E6579" fill-rule="evenodd" transform="matrix(-1.00026 0 0 1 1078 424.889)"/><path d="M214 339.412C214 329.749 221.835 321.916 231.5 321.916 241.165 321.916 249 329.749 249 339.412 249 349.074 241.165 356.907 231.5 356.907 221.835 356.907 214 349.074 214 339.412Z" stroke="#FFFFFF" stroke-width="2.00052" stroke-linejoin="round" stroke-miterlimit="10" fill="none" fill-rule="evenodd"/><text fill="#FFFFFF" font-family="Arial,Arial_MSFontService,sans-serif" font-weight="700" font-size="19" transform="matrix(1 0 0 0.99974 226.017 346)">1</text><path d="M448 339.412C448 329.749 455.611 321.916 465 321.916 474.389 321.916 482 329.749 482 339.412 482 349.074 474.389 356.907 465 356.907 455.611 356.907 448 349.074 448 339.412Z" stroke="#FFFFFF" stroke-width="2.00052" stroke-linejoin="round" stroke-miterlimit="10" fill="none" fill-rule="evenodd"/><text fill="#FFFFFF" font-family="Arial,Arial_MSFontService,sans-serif" font-weight="700" font-size="19" transform="matrix(1 0 0 0.99974 459.666 346)">3</text><path d="M680 339.412C680 329.749 687.835 321.916 697.5 321.916 707.165 321.916 715 329.749 715 339.412 715 349.074 707.165 356.907 697.5 356.907 687.835 356.907 680 349.074 680 339.412Z" stroke="#FFFFFF" stroke-width="2.00052" stroke-linejoin="round" stroke-miterlimit="10" fill="none" fill-rule="evenodd"/><text fill="#FFFFFF" font-family="Arial,Arial_MSFontService,sans-serif" font-weight="700" font-size="19" transform="matrix(1 0 0 0.99974 692.584 346)">5</text><path d="M913 339.412C913 329.749 920.835 321.916 930.5 321.916 940.165 321.916 948 329.749 948 339.412 948 349.074 940.165 356.907 930.5 356.907 920.835 356.907 913 349.074 913 339.412Z" stroke="#FFFFFF" stroke-width="2.00052" stroke-linejoin="round" stroke-miterlimit="10" fill="none" fill-rule="evenodd"/><text fill="#FFFFFF" font-family="Arial,Arial_MSFontService,sans-serif" font-weight="700" font-size="19" transform="matrix(1 0 0 0.99974 925.235 346)">7</text><path d="M331 455.881C331 446.495 338.611 438.886 348 438.886 357.389 438.886 365 446.495 365 455.881 365 465.268 357.389 472.877 348 472.877 338.611 472.877 331 465.268 331 455.881Z" stroke="#FFFFFF" stroke-width="2.00052" stroke-linejoin="round" stroke-miterlimit="10" fill="none" fill-rule="evenodd"/><text fill="#FFFFFF" font-family="Arial,Arial_MSFontService,sans-serif" font-weight="700" font-size="19" transform="matrix(1 0 0 0.99974 342.842 463)">2</text><path d="M564 455.881C564 446.495 571.611 438.886 581 438.886 590.389 438.886 598 446.495 598 455.881 598 465.268 590.389 472.877 581 472.877 571.611 472.877 564 465.268 564 455.881Z" stroke="#FFFFFF" stroke-width="2.00052" stroke-linejoin="round" stroke-miterlimit="10" fill="none" fill-rule="evenodd"/><text fill="#FFFFFF" font-family="Arial,Arial_MSFontService,sans-serif" font-weight="700" font-size="19" transform="matrix(1 0 0 0.99974 575.89 463)">4</text><path d="M797 455.881C797 446.495 804.611 438.886 814 438.886 823.389 438.886 831 446.495 831 455.881 831 465.268 823.389 472.877 814 472.877 804.611 472.877 797 465.268 797 455.881Z" stroke="#FFFFFF" stroke-width="2.00052" stroke-linejoin="round" stroke-miterlimit="10" fill="none" fill-rule="evenodd"/><text fill="#FFFFFF" font-family="Arial,Arial_MSFontService,sans-serif" font-weight="700" font-size="19" transform="matrix(1 0 0 0.99974 808.808 463)">6</text><path d="M1029 455.881C1029 446.495 1036.83 438.886 1046.5 438.886 1056.16 438.886 1064 446.495 1064 455.881 1064 465.268 1056.16 472.877 1046.5 472.877 1036.83 472.877 1029 465.268 1029 455.881Z" stroke="#FFFFFF" stroke-width="2.00052" stroke-linejoin="round" stroke-miterlimit="10" fill="none" fill-rule="evenodd"/><text fill="#FFFFFF" font-family="Arial,Arial_MSFontService,sans-serif" font-weight="700" font-size="19" transform="matrix(1 0 0 0.99974 1041.05 463)">8<tspan fill="#595959" font-weight="400" font-size="19" x="-855.534" y="-37.0096">Define the </tspan><tspan fill="#595959" font-weight="400" font-size="19" x="-864.79" y="-14.0036">purpose and </tspan><tspan fill="#595959" font-weight="400" font-size="19" x="-856.535" y="8.00208">strategy of </tspan><tspan fill="#595959" font-weight="400" font-size="19" x="-843.118" y="30.0078">the site</tspan><tspan fill="#595959" font-weight="400" font-size="19" x="-742.107" y="-167.044">Be aware of </tspan><tspan fill="#595959" font-weight="400" font-size="19" x="-730.183" y="-144.038">the latest </tspan><tspan fill="#595959" font-weight="400" font-size="19" x="-736.938" y="-122.032">site design </tspan><tspan fill="#595959" font-weight="400" font-size="19" x="-718.267" y="-100.026">trends</tspan><tspan fill="#595959" font-weight="400" font-size="19" x="-618.209" y="-37.0096">Select the </tspan><tspan fill="#595959" font-weight="400" font-size="19" x="-607.292" y="-14.0036">desired </tspan><tspan fill="#595959" font-weight="400" font-size="19" x="-610.373" y="8.00208">platform</tspan><tspan fill="#595959" font-weight="400" font-size="19" x="-501.067" y="-167.044">Select the </tspan><tspan fill="#595959" font-weight="400" font-size="19" x="-490.15" y="-144.038">desired </tspan><tspan fill="#595959" font-weight="400" font-size="19" x="-513.403" y="-122.032">template and </tspan><tspan fill="#595959" font-weight="400" font-size="19" x="-508.822" y="-100.026">customize it</tspan><tspan fill="#595959" font-weight="400" font-size="19" x="-384.466" y="-37.0096">Decide on </tspan><tspan fill="#595959" font-weight="400" font-size="19" x="-381.799" y="-14.0036">the brand </tspan><tspan fill="#595959" font-weight="400" font-size="19" x="-391.134" y="8.00208">and content </tspan><tspan fill="#595959" font-weight="400" font-size="19" x="-382.885" y="30.0078">of the site</tspan><tspan fill="#595959" font-weight="400" font-size="19" x="-277.079" y="-167.044">Add content </tspan><tspan fill="#595959" font-weight="400" font-size="19" x="-280.16" y="-144.038">and optimize </tspan><tspan fill="#595959" font-weight="400" font-size="19" x="-232.067" y="-122.032">it</tspan><tspan fill="#595959" font-weight="400" font-size="19" x="-151.004" y="-37.0096">Publish a </tspan><tspan fill="#595959" font-weight="400" font-size="19" x="-144.249" y="-14.0036">website</tspan><tspan fill="#595959" font-weight="400" font-size="19" x="-48.7821" y="-167.044">Performance </tspan><tspan fill="#595959" font-weight="400" font-size="19" x="-47.2817" y="-144.038">analysis and </tspan><tspan fill="#595959" font-weight="400" font-size="19" x="-49.2822" y="-122.032">improvement</tspan></text></g></svg>